<svg width="667" height="177" viewBox="0 0 667 177" fill="none" xmlns="http://www.w3.org/2000/svg">
<g clip-path="url(#clip0_138_129)">
<path d="M459.11 116.77V57.04H438.56V116.78C438.45 120.95 438.41 139.17 438.41 139.17H459.26C459.26 139.17 459.22 120.95 459.11 116.78V116.77Z" fill="#787878"/>
<path d="M137.68 60.8601C132.39 56.6901 124.62 54.6901 114.65 54.9001C110.34 55.0101 106.33 55.8201 102.73 57.3201C99.14 58.8101 95.85 60.8201 92.93 63.3001C90.01 65.7801 87.49 68.7101 85.45 72.0201C84.49 73.5801 83.63 75.2001 82.87 76.8701C82.33 70.0001 79.65 64.6201 74.89 60.8501C69.6 56.6801 61.83 54.6701 51.86 54.8901C47.33 55.0001 43.12 55.9001 39.35 57.5601C35.61 59.2101 32.22 61.4201 29.29 64.1301C26.37 66.8401 23.86 70.0401 21.83 73.6601C20.97 75.1901 20.21 76.7501 19.53 78.3501V78.3201C18.83 79.9101 16.33 86.1501 14.64 98.2001C13.89 103.58 11.67 82.8701 19.53 67.6701V56.3401H1.74L0 56.3601V138.47H19.55V95.9601C19.55 91.2801 20.31 86.6301 21.82 82.1601C22.41 80.4001 23.14 78.7301 23.94 77.1201C35.5 58.6501 45.62 59.5201 52.53 64.3301C58.74 68.6601 62.13 76.0301 62.13 83.6001V138.48H65.93L66.05 136.6V138.48H82.96V88.7701C83.69 84.8101 84.95 80.9601 86.73 77.3101C98.34 58.6401 108.51 59.5001 115.44 64.3301C121.65 68.6601 125.04 76.0301 125.04 83.6001V138.48H145.77V79.5401C145.77 71.3801 143.05 65.0901 137.69 60.8601H137.68Z" fill="#787878"/>
<path d="M500.94 79.04C500.94 79.04 500.96 78.99 500.97 78.97C500.96 79 500.95 79.01 500.94 79.04Z" fill="#787878"/>
<path d="M484.97 139.16V139.15L484.37 139.16H484.97Z" fill="#787878"/>
<path d="M484.51 57.03L483.43 57.04H484.51V57.03Z" fill="#787878"/>
<path d="M564.39 139.16C564.39 139.16 564.37 129.58 564.37 126.99V80.2199C564.37 72.0599 561.65 65.7699 556.29 61.5399C551 57.3699 543.23 55.3499 533.26 55.5799C528.73 55.6899 524.52 56.5899 520.75 58.2499C517 59.8999 513.62 62.1099 510.7 64.8099C507.78 67.5099 505.27 70.7199 503.24 74.3399C502.44 75.7599 501.72 77.2299 501.08 78.7199C501.08 78.7199 501.04 78.8099 500.97 78.9499C500.96 78.9699 500.95 78.9999 500.94 79.0199C500.32 80.4099 497.73 86.6699 496 99.0299C495.24 104.42 493.02 83.5999 500.94 68.3899V57.0199H483.21L481.03 57.0399V139.15H484.96L501.07 139.02C501.07 139.02 500.89 128.12 500.93 116.76V96.6399C500.93 91.9499 501.69 87.3099 503.2 82.8399C503.84 80.9499 504.62 79.1499 505.5 77.4299C516.96 59.3499 526.99 60.2199 533.86 64.9999C540.07 69.3299 543.46 76.6999 543.46 84.2699V139.15H547.26L547.33 138.05C547.33 138.73 547.32 139.16 547.32 139.16H564.38H564.39Z" fill="#787878"/>
<path d="M501.08 78.74C501.05 78.81 501.01 78.89 500.97 78.97C501.04 78.83 501.08 78.74 501.08 78.74Z" fill="#787878"/>
<path d="M443.48 31.65C445.27 24.9999 451.18 23.45 455.01 23.15C453.2 21.87 451.02 21.2 448.48 21.2C445.27 21.2 442.63 22.22 440.61 24.24C438.59 26.26 437.57 28.97 437.57 32.31C437.57 35.65 438.59 38.57 440.61 40.58C442.62 42.6 445.27 43.6199 448.48 43.6199C451.69 43.6199 454.33 42.6 456.35 40.58C458.37 38.56 459.39 35.7799 459.39 32.2999C459.39 29.7899 458.81 27.64 457.66 25.86C449.95 24.56 443.47 31.6399 443.47 31.6399L443.48 31.65Z" fill="#787878"/>
<path d="M247.71 75.3801C245.57 70.9901 242.72 67.3401 239.26 64.5401C235.8 61.7401 231.77 59.6601 227.28 58.3501C227.28 58.3501 227.33 58.4301 227.37 58.4901C226.11 57.9601 224.83 57.4801 223.49 57.0901C217.29 55.2701 210.72 54.7501 204.27 55.3801C190.03 56.3901 179.05 62.1101 179.05 62.1101V65.2601V76.9801L181.19 73.0601C182.41 70.8401 184.08 68.8001 186.16 67.0201C188.28 65.2101 190.66 63.6701 193.24 62.4301C195.82 61.1901 198.64 60.2101 201.61 59.5401C207.51 58.2001 213.26 58.1901 218.2 59.5301C220.62 60.1901 222.76 61.2301 224.56 62.6301C226.35 64.0201 227.78 65.8101 228.83 67.9501C229.87 70.0901 230.4 72.7101 230.4 75.7401V87.5701C229.62 86.4101 228.74 85.3401 227.76 84.3501C225.69 82.2901 223.27 80.5401 220.55 79.1501C217.86 77.7801 214.92 76.7101 211.84 75.9901C204.75 74.3501 196.94 74.5801 189.36 76.8101C185.06 78.0801 181.18 80.0101 177.81 82.5501C174.43 85.1001 171.59 88.3301 169.38 92.1401C167.15 95.9901 165.91 100.58 165.68 105.79C165.46 111.41 166.33 116.38 168.28 120.56C170.22 124.72 172.84 128.19 176.07 130.86C179.28 133.52 183.04 135.54 187.24 136.87C194.63 139.21 202.65 139.45 210.3 137.7C213.65 136.93 216.81 135.76 219.68 134.21C222.55 132.66 225.13 130.75 227.35 128.54C227.94 127.95 228.48 127.33 229 126.69L228.94 126.77C228.94 126.77 231.34 124.36 232.7 121.35C234.21 118.47 236.16 113.37 237.42 104.91C238.06 100.58 239.74 112.57 234.72 124.01C234.26 125.07 233.74 126.12 233.15 127.16C232.39 128.51 231.52 129.82 230.52 131.08V138.37H250.85V121.77C250.9 119.63 250.93 118.24 250.93 117.59V91.2301C250.93 85.1201 249.84 79.8001 247.7 75.4001L247.71 75.3801ZM222.4 126.57C220.31 128.07 217.95 129.25 215.4 130.07C210.22 131.73 204.69 131.75 199.58 129.87C197.02 128.93 194.75 127.43 192.83 125.41C190.89 123.39 189.34 120.72 188.2 117.5C187.06 114.26 186.57 110.33 186.76 105.82C186.94 101.69 187.7 98.1201 189.02 95.2101C190.34 92.3101 192.03 89.8701 194.07 87.9701C196.09 86.0801 198.42 84.6901 200.98 83.8401C205.93 82.1901 211.31 82.1201 216.21 83.5601C218.53 84.2501 220.7 85.2101 222.66 86.4401C224.59 87.6501 226.25 89.1801 227.6 90.9701C228.92 92.7301 229.86 94.6801 230.39 96.7701V114.05C230.04 116.64 229.14 119.01 227.71 121.11C226.26 123.24 224.47 125.07 222.39 126.56L222.4 126.57Z" fill="#787878"/>
<path d="M662.92 75.78C660.78 71.39 657.93 67.74 654.47 64.94C651.01 62.14 646.98 60.06 642.49 58.75C642.49 58.75 642.54 58.83 642.58 58.89C641.32 58.36 640.04 57.88 638.7 57.49C632.5 55.67 625.93 55.15 619.48 55.78C605.24 56.79 594.26 62.51 594.26 62.51V65.66V77.38L596.4 73.46C597.62 71.24 599.29 69.2 601.37 67.42C603.49 65.61 605.87 64.07 608.45 62.83C611.03 61.59 613.85 60.61 616.82 59.94C622.72 58.6 628.47 58.59 633.41 59.93C635.83 60.59 637.97 61.63 639.77 63.03C641.56 64.42 642.99 66.21 644.04 68.35C645.08 70.49 645.61 73.11 645.61 76.14V87.97C644.83 86.81 643.95 85.74 642.97 84.75C640.9 82.69 638.48 80.94 635.76 79.55C633.07 78.18 630.13 77.11 627.05 76.39C619.96 74.75 612.15 74.98 604.57 77.21C600.27 78.48 596.39 80.41 593.02 82.95C589.64 85.5 586.8 88.73 584.59 92.54C582.36 96.39 581.12 100.98 580.89 106.19C580.67 111.81 581.54 116.78 583.49 120.96C585.43 125.12 588.05 128.59 591.28 131.26C594.49 133.92 598.25 135.94 602.45 137.27C609.84 139.61 617.86 139.85 625.51 138.1C628.86 137.33 632.02 136.16 634.89 134.61C637.76 133.06 640.34 131.15 642.56 128.94C643.15 128.35 643.69 127.73 644.21 127.09L644.15 127.17C644.15 127.17 646.55 124.76 647.91 121.75C649.42 118.87 651.37 113.77 652.63 105.31C653.27 100.98 654.95 112.97 649.93 124.41C649.47 125.47 648.95 126.52 648.36 127.56C647.6 128.91 646.73 130.22 645.73 131.48V138.77H666.06V122.17C666.11 120.03 666.14 118.64 666.14 117.99V91.63C666.14 85.52 665.05 80.2 662.91 75.8L662.92 75.78ZM637.61 126.97C635.52 128.47 633.16 129.65 630.61 130.47C625.43 132.13 619.9 132.15 614.79 130.27C612.23 129.33 609.96 127.83 608.04 125.81C606.1 123.79 604.55 121.12 603.41 117.9C602.27 114.66 601.78 110.73 601.97 106.22C602.15 102.09 602.91 98.52 604.23 95.61C605.55 92.71 607.24 90.27 609.28 88.37C611.3 86.48 613.63 85.09 616.19 84.24C621.14 82.59 626.52 82.52 631.42 83.96C633.74 84.65 635.91 85.61 637.87 86.84C639.8 88.05 641.46 89.58 642.81 91.37C644.13 93.13 645.07 95.08 645.6 97.17V114.45C645.25 117.04 644.35 119.41 642.92 121.51C641.47 123.64 639.68 125.47 637.6 126.96L637.61 126.97Z" fill="#787878"/>
<path d="M305.72 86.2099C305.2 81.6299 304.4 76.4299 303.29 71.1299L305.72 86.2099Z" fill="#787878"/>
<path d="M322.91 67.8299C328.83 60.1599 336.19 54.2499 344.8 49.8499C346.51 48.9799 348.25 48.1899 350.02 47.4599C352.86 44.7799 355.26 41.6999 356.93 38.0599C355.9 41.3299 354.15 44.1999 351.94 46.7099C353.11 46.2599 354.28 45.8199 355.46 45.4099C358.27 44.4299 361.09 43.4799 363.89 42.4899C365.95 41.7599 367.97 40.9099 369.88 39.8299C371.21 39.0799 372.46 38.2099 373.58 37.1699C373.69 37.0699 373.79 36.9199 374.04 36.8899C373.94 37.0599 373.88 37.1899 373.79 37.2799C373.27 37.8299 372.76 38.4099 372.2 38.9199C370.94 40.0899 369.55 41.0899 368.13 42.0599C365.04 44.1699 361.8 46.0299 358.51 47.7999C354.8 49.7999 351.04 51.6799 347.22 53.4499C339.4 57.0699 332.76 62.2099 327.16 68.7399C325.28 70.9299 323.53 73.2199 321.83 75.5499C318.18 80.5499 314.78 85.7099 311.6 90.9999C320.19 84.8199 335.36 76.0899 340.84 73.8499C351.3 69.5799 362.41 66.0799 373.35 63.7499C384.65 61.3399 410.1 59.6499 423.06 20.1699C424.5 15.7799 431.43 -1.05006 426.11 0.0799438C398.27 5.99994 384.99 1.80994 366.41 10.3699C349.97 17.9399 335.86 29.5299 325.89 45.0899C318.48 56.6499 314.02 76.0299 309.85 90.2499C311.4 86.8399 313.06 83.4699 314.89 80.1799C317.27 75.8799 319.89 71.7399 322.9 67.8499L322.91 67.8299Z" fill="#787878"/>
<path d="M428.22 172.61C414.17 148.76 413.5 135.23 400.17 120.73C388.37 107.9 373.87 98.4601 357.29 94.0601C345.24 90.8601 325.29 91.2901 311.61 93.0801C312.74 93.1401 313.87 93.1601 315 93.2501C321.14 93.7401 327.2 94.7101 333.12 96.4601C337.83 97.8601 342.34 99.7601 346.66 102.11C354.5 106.38 361.42 111.8 367.36 118.47C369.21 120.54 370.92 122.72 372.37 125.09C372.87 125.91 373.3 126.77 373.75 127.61C373.86 127.82 373.91 128.05 374.04 128.41C373.83 128.28 373.73 128.24 373.68 128.18C371.12 124.75 368.08 121.76 364.88 118.94C359.2 113.94 352.99 109.69 346.41 105.99C350.75 109.67 354.18 114.28 355.53 119.86C352.9 112.93 347.64 107.7 341.68 103.44C340.03 102.6 338.36 101.79 336.65 101.08C334.78 100.3 332.88 99.6101 330.96 98.9801C327.41 97.8101 323.8 96.9101 320.15 96.1201C317.22 95.4801 314.27 95.0101 311.31 94.6001C317.64 97.4901 329.09 104.63 340.26 117.55C347.35 125.74 351.01 134.23 356.53 143.6C362.24 153.28 371.88 176.22 409.98 176.01C414.21 175.99 430.91 177.19 428.23 172.64L428.22 172.61Z" fill="#787878"/>
<path d="M303.78 164.18C303.78 164.18 303.78 164.13 303.77 164.1C303.77 164.08 303.75 164.05 303.74 164.03C303.75 164.08 303.77 164.13 303.78 164.18Z" fill="#787878"/>
<path d="M438.4 159.16C438.82 159.15 439.12 159.05 439.31 158.87C439.5 158.69 439.59 158.47 439.62 158.23C439.65 157.99 439.66 157.55 439.66 156.93V149.1C439.66 148.59 439.68 148.16 439.71 147.79L438.4 147.86V147.06H447.12L447.21 150.23H446.61C446.61 149.24 446.4 148.56 445.97 148.2C445.54 147.84 444.94 147.67 444.16 147.69L442.6 147.73C442.16 147.74 441.85 147.82 441.66 147.98C441.47 148.14 441.35 148.34 441.3 148.61C441.25 148.88 441.23 149.31 441.23 149.89V152.79L444.64 152.81L444.51 151.25H445.31V155.06H444.71C444.71 154.61 444.66 154.27 444.55 154.04C444.44 153.8 444.28 153.65 444.05 153.57C443.83 153.49 443.51 153.45 443.12 153.45L442.56 153.47L441.24 153.52V157.67C441.24 158.3 441.22 158.77 441.19 159.08L444.65 159.03C445.5 159.02 446.14 158.8 446.59 158.39C447.04 157.97 447.26 157.25 447.26 156.22H447.88L447.77 159.76H438.41V159.16H438.4Z" fill="#787878"/>
<path d="M449.48 159.21C449.83 159.21 450.08 159.12 450.23 158.95C450.38 158.78 450.47 158.55 450.5 158.28C450.53 158.01 450.55 157.58 450.55 157V152.87C450.55 152.36 450.57 151.97 450.62 151.69L449.33 151.74V151H449.89C450.35 151 450.68 150.96 450.89 150.88C451.1 150.8 451.29 150.68 451.47 150.51H452C452.05 150.98 452.08 151.58 452.09 152.31C452.39 151.81 452.83 151.37 453.39 150.99C453.95 150.61 454.54 150.41 455.14 150.41C455.5 150.41 455.8 150.51 456.05 150.7C456.3 150.89 456.41 151.18 456.41 151.55C456.41 151.74 456.33 151.94 456.18 152.13C456.03 152.32 455.81 152.42 455.54 152.42C455.27 152.42 455.06 152.32 454.89 152.12C454.72 151.92 454.66 151.68 454.69 151.4C454.23 151.39 453.77 151.56 453.3 151.93C452.84 152.29 452.44 152.78 452.11 153.38L452.13 157.84C452.13 158.38 452.1 158.8 452.06 159.07L453.2 159.02V159.76H449.48V159.22V159.21Z" fill="#787878"/>
<path d="M457.33 159.21C457.68 159.21 457.93 159.12 458.08 158.95C458.23 158.78 458.32 158.55 458.35 158.28C458.38 158.01 458.4 157.58 458.4 157V152.87C458.4 152.52 458.42 152.13 458.47 151.69L457.18 151.76V151C457.89 151 458.41 150.96 458.71 150.87C459.01 150.78 459.26 150.66 459.43 150.51H459.96V157.84C459.96 158.38 459.94 158.8 459.89 159.07L461.03 159.02V159.76H457.33V159.22V159.21ZM458.45 148.39C458.26 148.18 458.16 147.93 458.16 147.64C458.16 147.35 458.26 147.1 458.46 146.88C458.66 146.66 458.89 146.55 459.14 146.55C459.42 146.55 459.65 146.66 459.84 146.87C460.03 147.08 460.12 147.34 460.12 147.64C460.12 147.94 460.02 148.18 459.82 148.39C459.62 148.6 459.39 148.71 459.12 148.71C458.85 148.71 458.64 148.6 458.45 148.39Z" fill="#787878"/>
<path d="M463.66 156.71L463.7 151.45L462.3 151.47V150.69C462.88 150.68 463.37 150.42 463.78 149.9C464.18 149.39 464.48 148.8 464.68 148.15H465.3V150.69H468.35V151.4L465.3 151.44C465.29 153.29 465.28 154.57 465.27 155.28C465.26 155.99 465.27 156.39 465.27 156.48C465.27 157.34 465.37 157.98 465.58 158.39C465.79 158.81 466.14 159.02 466.65 159.02C466.96 159.02 467.28 158.92 467.58 158.73C467.88 158.54 468.16 158.27 468.39 157.93L468.88 158.33C468.41 159.03 467.94 159.49 467.48 159.72C467.02 159.94 466.57 160.06 466.14 160.06C464.48 160.06 463.66 158.95 463.67 156.72L463.66 156.71Z" fill="#787878"/>
<path d="M469.73 159.21C470.08 159.21 470.33 159.12 470.48 158.95C470.63 158.78 470.72 158.55 470.75 158.28C470.78 158.01 470.8 157.58 470.8 157V152.87C470.8 152.36 470.82 151.97 470.87 151.69L469.58 151.74V151H470.14C470.6 151 470.93 150.96 471.14 150.88C471.35 150.8 471.54 150.68 471.72 150.51H472.25C472.3 150.98 472.33 151.58 472.34 152.31C472.64 151.81 473.08 151.37 473.64 150.99C474.2 150.61 474.79 150.41 475.39 150.41C475.75 150.41 476.05 150.51 476.3 150.7C476.55 150.89 476.66 151.18 476.66 151.55C476.66 151.74 476.58 151.94 476.43 152.13C476.28 152.32 476.06 152.42 475.79 152.42C475.52 152.42 475.31 152.32 475.14 152.12C474.97 151.92 474.91 151.68 474.94 151.4C474.48 151.39 474.02 151.56 473.55 151.93C473.09 152.29 472.69 152.78 472.36 153.38L472.38 157.84C472.38 158.38 472.35 158.8 472.31 159.07L473.45 159.02V159.76H469.73V159.22V159.21Z" fill="#787878"/>
<path d="M479.59 159.46C478.92 159.07 478.39 158.51 478 157.77C477.61 157.04 477.42 156.2 477.42 155.24C477.42 154.39 477.61 153.6 478 152.85C478.39 152.11 478.93 151.51 479.62 151.06C480.31 150.61 481.1 150.39 481.99 150.39C482.68 150.39 483.3 150.54 483.86 150.84C484.42 151.14 484.86 151.59 485.18 152.19C485.51 152.79 485.67 153.52 485.67 154.39L479.29 154.5C479.28 155.95 479.52 157.08 480.01 157.89C480.5 158.7 481.26 159.1 482.29 159.1C482.85 159.1 483.42 158.96 484 158.66C484.59 158.37 485.04 158.01 485.35 157.59L485.79 157.95C485.33 158.65 484.73 159.17 484 159.51C483.27 159.85 482.55 160.02 481.85 160.02C481.02 160.02 480.26 159.82 479.59 159.43V159.46ZM483.97 153.76C483.97 153.03 483.81 152.41 483.48 151.89C483.15 151.37 482.66 151.11 482.01 151.11C480.51 151.11 479.62 151.99 479.34 153.76H483.96H483.97Z" fill="#787878"/>
<path d="M487.77 159.45C487.3 159.05 487.07 158.53 487.07 157.89C487.07 157.19 487.35 156.6 487.91 156.11C488.47 155.63 489.18 155.27 490.03 155.03C490.88 154.79 491.74 154.68 492.6 154.69V153.57C492.6 152.78 492.48 152.17 492.25 151.73C492.02 151.29 491.53 151.07 490.78 151.07C490.41 151.07 490.05 151.15 489.71 151.31C489.37 151.47 489.12 151.7 488.97 152.02C489.13 152.19 489.21 152.42 489.21 152.71C489.21 152.89 489.14 153.06 489.01 153.23C488.88 153.39 488.68 153.48 488.43 153.48C488.18 153.48 487.98 153.4 487.83 153.23C487.69 153.07 487.61 152.85 487.61 152.59C487.61 152.19 487.76 151.83 488.07 151.49C488.38 151.16 488.81 150.89 489.36 150.7C489.91 150.51 490.52 150.41 491.2 150.41C492.22 150.41 492.97 150.68 493.45 151.22C493.93 151.76 494.17 152.61 494.16 153.77L494.14 157.85C494.14 158.24 494.12 158.65 494.07 159.08L495.36 159.01V159.77H492.77C492.73 159.59 492.69 159.24 492.64 158.74C491.76 159.62 490.81 160.06 489.79 160.06C488.91 160.06 488.23 159.86 487.77 159.46V159.45ZM491.46 158.75C491.83 158.57 492.22 158.31 492.6 157.94C492.59 157.76 492.58 157.45 492.58 157.02L492.6 155.31C491.61 155.35 490.73 155.55 489.95 155.92C489.18 156.29 488.79 156.85 488.79 157.62C488.79 158.07 488.92 158.41 489.19 158.65C489.46 158.89 489.8 159.01 490.21 159.01C490.67 159.01 491.09 158.92 491.46 158.75Z" fill="#787878"/>
<path d="M496.61 159.21C496.96 159.21 497.21 159.12 497.36 158.95C497.51 158.78 497.6 158.56 497.62 158.3C497.64 158.04 497.66 157.61 497.67 157L497.69 152.87C497.69 152.36 497.71 151.97 497.76 151.69L496.47 151.76V151C497.18 151 497.67 150.96 497.94 150.88C498.21 150.8 498.43 150.68 498.61 150.51H499.14C499.16 150.74 499.19 151.11 499.21 151.62C499.62 151.26 500.09 150.96 500.62 150.74C501.15 150.52 501.66 150.4 502.17 150.4C503.22 150.4 503.99 150.73 504.47 151.39C504.95 152.05 505.19 153.07 505.19 154.46V157.83C505.19 158.37 505.17 158.79 505.12 159.06L506.26 159.01V159.75H502.56V159.21C502.91 159.21 503.16 159.12 503.31 158.95C503.46 158.78 503.55 158.55 503.58 158.28C503.61 158.01 503.62 157.58 503.62 157V154.46C503.61 153.42 503.44 152.64 503.11 152.11C502.78 151.58 502.27 151.32 501.57 151.32C501.13 151.32 500.7 151.43 500.27 151.65C499.84 151.87 499.49 152.15 499.21 152.5C499.22 152.63 499.23 152.87 499.23 153.21L499.21 157.83C499.21 158.37 499.19 158.79 499.14 159.06L500.28 159.01V159.75H496.58V159.21H496.61Z" fill="#787878"/>
<path d="M512.81 153.32H519.25V154.52L512.81 154.59V153.32Z" fill="#787878"/>
<path d="M526.23 159.16C526.65 159.15 526.95 159.05 527.14 158.87C527.33 158.69 527.42 158.47 527.45 158.23C527.48 157.99 527.49 157.55 527.49 156.93V149.1C527.49 148.59 527.51 148.16 527.54 147.79L526.23 147.86V147.06H534.95L535.04 150.23H534.44C534.44 149.24 534.23 148.56 533.8 148.2C533.37 147.84 532.77 147.67 531.99 147.69L530.43 147.73C529.99 147.74 529.68 147.82 529.49 147.98C529.3 148.14 529.18 148.34 529.13 148.61C529.08 148.88 529.06 149.31 529.06 149.89V152.79L532.47 152.81L532.34 151.25H533.14V155.06H532.54C532.54 154.61 532.49 154.27 532.38 154.04C532.27 153.8 532.11 153.65 531.88 153.57C531.66 153.49 531.34 153.45 530.95 153.45L530.39 153.47L529.07 153.52V157.67C529.07 158.3 529.05 158.77 529.02 159.08L532.48 159.03C533.33 159.02 533.97 158.8 534.42 158.39C534.87 157.97 535.09 157.25 535.09 156.22H535.71L535.6 159.76H526.24V159.16H526.23Z" fill="#787878"/>
<path d="M538.15 156.71L538.19 151.45L536.79 151.47V150.69C537.37 150.68 537.86 150.42 538.27 149.9C538.67 149.39 538.97 148.8 539.17 148.15H539.79V150.69H542.84V151.4L539.79 151.44C539.78 153.29 539.77 154.57 539.76 155.28C539.75 155.99 539.76 156.39 539.76 156.48C539.76 157.34 539.86 157.98 540.07 158.39C540.28 158.81 540.63 159.02 541.14 159.02C541.45 159.02 541.77 158.92 542.07 158.73C542.37 158.54 542.65 158.27 542.88 157.93L543.37 158.33C542.9 159.03 542.43 159.49 541.97 159.72C541.51 159.94 541.06 160.06 540.63 160.06C538.97 160.06 538.15 158.95 538.16 156.72L538.15 156.71Z" fill="#787878"/>
<path d="M544.04 159.21C544.39 159.21 544.64 159.12 544.8 158.95C544.96 158.78 545.05 158.55 545.08 158.27C545.11 157.99 545.13 157.57 545.13 157V148.42C545.13 147.96 545.15 147.57 545.18 147.24L543.89 147.31V146.55C544.62 146.55 545.13 146.51 545.44 146.42C545.75 146.34 545.99 146.21 546.16 146.06H546.69V151.59C547.11 151.24 547.59 150.95 548.12 150.73C548.65 150.51 549.16 150.39 549.66 150.39C550.7 150.39 551.46 150.72 551.93 151.37C552.4 152.02 552.64 153.05 552.66 154.45L552.68 157.82C552.68 158.36 552.65 158.78 552.61 159.05L553.75 159V159.74H550.05V159.2C550.4 159.2 550.65 159.11 550.8 158.94C550.95 158.77 551.04 158.54 551.07 158.27C551.1 158 551.12 157.57 551.12 156.99V154.45C551.12 153.41 550.96 152.63 550.63 152.12C550.3 151.61 549.79 151.35 549.09 151.35C548.64 151.35 548.2 151.45 547.76 151.67C547.32 151.88 546.96 152.15 546.7 152.48V157.83C546.7 158.3 546.67 158.71 546.61 159.06L547.75 159.01V159.75H544.05V159.21H544.04Z" fill="#787878"/>
<path d="M555.08 159.21C555.43 159.21 555.68 159.12 555.83 158.95C555.98 158.78 556.07 158.55 556.1 158.28C556.13 158.01 556.15 157.58 556.15 157V152.87C556.15 152.52 556.17 152.13 556.22 151.69L554.93 151.76V151C555.64 151 556.16 150.96 556.46 150.87C556.76 150.78 557.01 150.66 557.18 150.51H557.71V157.84C557.71 158.38 557.69 158.8 557.64 159.07L558.78 159.02V159.76H555.08V159.22V159.21ZM556.2 148.39C556.01 148.18 555.91 147.93 555.91 147.64C555.91 147.35 556.01 147.1 556.21 146.88C556.41 146.66 556.64 146.55 556.89 146.55C557.17 146.55 557.4 146.66 557.59 146.87C557.78 147.08 557.87 147.34 557.87 147.64C557.87 147.94 557.77 148.18 557.57 148.39C557.37 148.6 557.14 148.71 556.87 148.71C556.6 148.71 556.39 148.6 556.2 148.39Z" fill="#787878"/>
<path d="M562.38 159.46C561.68 159.07 561.13 158.52 560.73 157.82C560.33 157.12 560.12 156.33 560.12 155.44C560.12 154.5 560.32 153.64 560.72 152.87C561.12 152.1 561.67 151.5 562.36 151.06C563.05 150.62 563.83 150.4 564.67 150.4C565.51 150.4 566.27 150.6 566.97 151.01C567.67 151.42 568.22 151.97 568.63 152.67C569.03 153.37 569.24 154.15 569.24 155.01C569.24 155.93 569.04 156.78 568.63 157.55C568.22 158.32 567.68 158.93 566.98 159.38C566.28 159.83 565.51 160.05 564.67 160.05C563.83 160.05 563.07 159.85 562.38 159.46ZM566.77 158.24C567.19 157.51 567.4 156.61 567.4 155.54C567.4 154.32 567.17 153.27 566.72 152.4C566.27 151.53 565.59 151.09 564.68 151.09C563.77 151.09 563.11 151.46 562.66 152.2C562.21 152.94 561.98 153.84 561.98 154.92C561.98 155.69 562.09 156.42 562.3 157.09C562.51 157.76 562.83 158.3 563.26 158.71C563.69 159.12 564.21 159.33 564.83 159.33C565.71 159.33 566.36 158.97 566.78 158.24H566.77Z" fill="#787878"/>
<path d="M570.62 163.84C570.97 163.84 571.22 163.75 571.37 163.58C571.52 163.4 571.61 163.19 571.63 162.93C571.66 162.67 571.67 162.24 571.68 161.63L571.72 152.87C571.72 152.36 571.74 151.97 571.79 151.69L570.5 151.76V151C571.21 151 571.7 150.96 571.97 150.88C572.24 150.8 572.45 150.68 572.62 150.51H573.16C573.21 151.1 573.23 151.43 573.23 151.49C573.59 151.16 574.03 150.9 574.54 150.7C575.05 150.5 575.55 150.4 576.04 150.4C576.75 150.4 577.41 150.58 578.02 150.95C578.62 151.32 579.11 151.85 579.48 152.53C579.85 153.21 580.03 154 580.03 154.9C580.03 155.9 579.82 156.8 579.4 157.57C578.98 158.35 578.41 158.96 577.7 159.39C576.99 159.82 576.23 160.04 575.4 160.04C574.57 160.04 573.84 159.84 573.22 159.44V162.45C573.22 162.99 573.19 163.4 573.15 163.68L574.29 163.63V164.37H570.59V163.83L570.62 163.84ZM576.87 158.8C577.29 158.45 577.61 157.96 577.84 157.33C578.07 156.7 578.18 155.99 578.18 155.19C578.18 154.1 577.95 153.18 577.48 152.43C577.01 151.68 576.32 151.3 575.4 151.3C575 151.3 574.61 151.4 574.24 151.59C573.87 151.78 573.54 152.03 573.26 152.32C573.27 152.4 573.28 152.77 573.28 153.43L573.26 158.64C573.88 159.11 574.58 159.35 575.38 159.35C575.95 159.35 576.44 159.17 576.86 158.82L576.87 158.8Z" fill="#787878"/>
<path d="M581.62 159.21C581.97 159.21 582.22 159.12 582.37 158.95C582.52 158.78 582.61 158.55 582.64 158.28C582.67 158.01 582.69 157.58 582.69 157V152.87C582.69 152.52 582.71 152.13 582.76 151.69L581.47 151.76V151C582.18 151 582.7 150.96 583 150.87C583.3 150.78 583.55 150.66 583.72 150.51H584.25V157.84C584.25 158.38 584.23 158.8 584.18 159.07L585.32 159.02V159.76H581.62V159.22V159.21ZM582.74 148.39C582.55 148.18 582.45 147.93 582.45 147.64C582.45 147.35 582.55 147.1 582.75 146.88C582.95 146.66 583.18 146.55 583.43 146.55C583.71 146.55 583.94 146.66 584.13 146.87C584.32 147.08 584.41 147.34 584.41 147.64C584.41 147.94 584.31 148.18 584.11 148.39C583.91 148.6 583.68 148.71 583.41 148.71C583.14 148.71 582.93 148.6 582.74 148.39Z" fill="#787878"/>
<path d="M587.23 159.45C586.76 159.05 586.53 158.53 586.53 157.89C586.53 157.19 586.81 156.6 587.37 156.11C587.93 155.63 588.64 155.27 589.49 155.03C590.34 154.79 591.2 154.68 592.06 154.69V153.57C592.06 152.78 591.94 152.17 591.71 151.73C591.48 151.29 590.99 151.07 590.24 151.07C589.87 151.07 589.51 151.15 589.17 151.31C588.83 151.47 588.58 151.7 588.43 152.02C588.59 152.19 588.67 152.42 588.67 152.71C588.67 152.89 588.6 153.06 588.47 153.23C588.34 153.39 588.14 153.48 587.89 153.48C587.64 153.48 587.44 153.4 587.29 153.23C587.15 153.07 587.07 152.85 587.07 152.59C587.07 152.19 587.22 151.83 587.53 151.49C587.84 151.16 588.27 150.89 588.82 150.7C589.37 150.51 589.98 150.41 590.66 150.41C591.68 150.41 592.43 150.68 592.91 151.22C593.39 151.76 593.63 152.61 593.62 153.77L593.6 157.85C593.6 158.24 593.58 158.65 593.53 159.08L594.82 159.01V159.77H592.23C592.19 159.59 592.15 159.24 592.1 158.74C591.22 159.62 590.27 160.06 589.25 160.06C588.37 160.06 587.69 159.86 587.23 159.46V159.45ZM590.92 158.75C591.29 158.57 591.68 158.31 592.06 157.94C592.05 157.76 592.04 157.45 592.04 157.02L592.06 155.31C591.07 155.35 590.19 155.55 589.41 155.92C588.64 156.29 588.25 156.85 588.25 157.62C588.25 158.07 588.38 158.41 588.65 158.65C588.92 158.89 589.26 159.01 589.67 159.01C590.13 159.01 590.55 158.92 590.92 158.75Z" fill="#787878"/>
<path d="M596.07 159.21C596.42 159.21 596.67 159.12 596.82 158.95C596.97 158.78 597.06 158.56 597.08 158.3C597.1 158.04 597.12 157.61 597.13 157L597.15 152.87C597.15 152.36 597.17 151.97 597.22 151.69L595.93 151.76V151C596.64 151 597.13 150.96 597.4 150.88C597.67 150.8 597.89 150.68 598.07 150.51H598.6C598.62 150.74 598.65 151.11 598.67 151.62C599.08 151.26 599.55 150.96 600.08 150.74C600.61 150.52 601.12 150.4 601.63 150.4C602.68 150.4 603.45 150.73 603.93 151.39C604.41 152.05 604.65 153.07 604.65 154.46V157.83C604.65 158.37 604.63 158.79 604.58 159.06L605.72 159.01V159.75H602.02V159.21C602.37 159.21 602.62 159.12 602.77 158.95C602.92 158.78 603.01 158.55 603.04 158.28C603.07 158.01 603.08 157.58 603.08 157V154.46C603.07 153.42 602.9 152.64 602.57 152.11C602.24 151.58 601.73 151.32 601.03 151.32C600.59 151.32 600.16 151.43 599.73 151.65C599.3 151.87 598.95 152.15 598.67 152.5C598.68 152.63 598.69 152.87 598.69 153.21L598.67 157.83C598.67 158.37 598.65 158.79 598.6 159.06L599.74 159.01V159.75H596.04V159.21H596.07Z" fill="#787878"/>
<path d="M612.05 159.16C612.47 159.15 612.77 159.05 612.96 158.87C613.15 158.69 613.24 158.47 613.27 158.23C613.3 157.99 613.31 157.55 613.31 156.93V149.1C613.31 148.59 613.33 148.16 613.36 147.79L612.05 147.86V147.06H620.77L620.86 150.23H620.26C620.26 149.24 620.05 148.56 619.62 148.2C619.19 147.84 618.59 147.67 617.81 147.69L616.25 147.73C615.81 147.74 615.5 147.82 615.31 147.98C615.12 148.14 615 148.34 614.95 148.61C614.9 148.88 614.88 149.31 614.88 149.89V152.79L618.29 152.81L618.16 151.25H618.96V155.06H618.36C618.36 154.61 618.31 154.27 618.2 154.04C618.09 153.8 617.93 153.65 617.7 153.57C617.48 153.49 617.16 153.45 616.77 153.45L616.21 153.47L614.89 153.52V157.67C614.89 158.3 614.87 158.77 614.84 159.08L618.3 159.03C619.15 159.02 619.79 158.8 620.24 158.39C620.69 157.97 620.91 157.25 620.91 156.22H621.53L621.42 159.76H612.06V159.16H612.05Z" fill="#787878"/>
<path d="M623.65 159.45C623.18 159.05 622.95 158.53 622.95 157.89C622.95 157.19 623.23 156.6 623.79 156.11C624.35 155.63 625.06 155.27 625.91 155.03C626.76 154.79 627.62 154.68 628.48 154.69V153.57C628.48 152.78 628.36 152.17 628.13 151.73C627.9 151.29 627.41 151.07 626.66 151.07C626.29 151.07 625.93 151.15 625.59 151.31C625.25 151.47 625 151.7 624.85 152.02C625.01 152.19 625.09 152.42 625.09 152.71C625.09 152.89 625.02 153.06 624.89 153.23C624.76 153.39 624.56 153.48 624.31 153.48C624.06 153.48 623.86 153.4 623.71 153.23C623.57 153.07 623.49 152.85 623.49 152.59C623.49 152.19 623.64 151.83 623.95 151.49C624.26 151.16 624.69 150.89 625.24 150.7C625.79 150.51 626.4 150.41 627.08 150.41C628.1 150.41 628.85 150.68 629.33 151.22C629.81 151.76 630.05 152.61 630.04 153.77L630.02 157.85C630.02 158.24 630 158.65 629.95 159.08L631.24 159.01V159.77H628.65C628.61 159.59 628.57 159.24 628.52 158.74C627.64 159.62 626.69 160.06 625.67 160.06C624.79 160.06 624.11 159.86 623.65 159.46V159.45ZM627.34 158.75C627.71 158.57 628.1 158.31 628.48 157.94C628.47 157.76 628.46 157.45 628.46 157.02L628.48 155.31C627.49 155.35 626.61 155.55 625.83 155.92C625.06 156.29 624.67 156.85 624.67 157.62C624.67 158.07 624.8 158.41 625.07 158.65C625.34 158.89 625.68 159.01 626.09 159.01C626.55 159.01 626.97 158.92 627.34 158.75Z" fill="#787878"/>
<path d="M633.3 156.71L633.34 151.45L631.94 151.47V150.69C632.52 150.68 633.01 150.42 633.42 149.9C633.82 149.39 634.12 148.8 634.32 148.15H634.94V150.69H637.99V151.4L634.94 151.44C634.93 153.29 634.92 154.57 634.91 155.28C634.9 155.99 634.91 156.39 634.91 156.48C634.91 157.34 635.01 157.98 635.22 158.39C635.43 158.81 635.78 159.02 636.29 159.02C636.6 159.02 636.92 158.92 637.22 158.73C637.52 158.54 637.8 158.27 638.03 157.93L638.52 158.33C638.05 159.03 637.58 159.49 637.12 159.72C636.66 159.94 636.21 160.06 635.78 160.06C634.12 160.06 633.3 158.95 633.31 156.72L633.3 156.71Z" fill="#787878"/>
<path d="M641.51 159.46C640.84 159.07 640.31 158.51 639.92 157.77C639.53 157.04 639.34 156.2 639.34 155.24C639.34 154.39 639.53 153.6 639.92 152.85C640.31 152.11 640.85 151.51 641.54 151.06C642.23 150.61 643.02 150.39 643.91 150.39C644.6 150.39 645.22 150.54 645.78 150.84C646.34 151.14 646.78 151.59 647.1 152.19C647.43 152.79 647.59 153.52 647.59 154.39L641.21 154.5C641.2 155.95 641.44 157.08 641.93 157.89C642.42 158.7 643.18 159.1 644.21 159.1C644.77 159.1 645.34 158.96 645.92 158.66C646.51 158.37 646.96 158.01 647.27 157.59L647.71 157.95C647.25 158.65 646.65 159.17 645.92 159.51C645.19 159.85 644.47 160.02 643.77 160.02C642.94 160.02 642.18 159.82 641.51 159.43V159.46ZM645.89 153.76C645.89 153.03 645.73 152.41 645.4 151.89C645.07 151.37 644.58 151.11 643.93 151.11C642.43 151.11 641.54 151.99 641.26 153.76H645.88H645.89Z" fill="#787878"/>
<path d="M649.21 159.21C649.56 159.21 649.81 159.12 649.96 158.95C650.11 158.78 650.2 158.55 650.23 158.28C650.26 158.01 650.28 157.58 650.28 157V152.87C650.28 152.36 650.3 151.97 650.35 151.69L649.06 151.74V151H649.62C650.08 151 650.41 150.96 650.62 150.88C650.83 150.8 651.02 150.68 651.2 150.51H651.73C651.78 150.98 651.81 151.58 651.82 152.31C652.12 151.81 652.56 151.37 653.12 150.99C653.68 150.61 654.27 150.41 654.87 150.41C655.23 150.41 655.53 150.51 655.78 150.7C656.03 150.89 656.14 151.18 656.14 151.55C656.14 151.74 656.06 151.94 655.91 152.13C655.76 152.32 655.54 152.42 655.27 152.42C655 152.42 654.79 152.32 654.62 152.12C654.45 151.92 654.39 151.68 654.42 151.4C653.96 151.39 653.5 151.56 653.03 151.93C652.57 152.29 652.17 152.78 651.84 153.38L651.86 157.84C651.86 158.38 651.83 158.8 651.79 159.07L652.93 159.02V159.76H649.21V159.22V159.21Z" fill="#787878"/>
<path d="M657.79 164.38C657.54 164.19 657.41 163.92 657.41 163.56C657.41 163.33 657.49 163.13 657.64 162.95C657.79 162.77 657.99 162.69 658.23 162.69C658.47 162.69 658.65 162.77 658.77 162.94C658.88 163.11 658.94 163.28 658.94 163.47C658.94 163.58 658.94 163.66 658.92 163.72C658.96 163.74 659.02 163.76 659.12 163.76C659.28 163.76 659.44 163.7 659.6 163.58C659.76 163.46 659.91 163.28 660.04 163.05C660.32 162.59 660.74 161.56 661.31 159.95L658.48 153.89C657.97 152.8 657.65 151.97 657.52 151.39L656.65 151.43V150.69H660.4V151.23H660.33C659.76 151.27 659.48 151.51 659.48 151.95C659.48 152.25 659.62 152.72 659.92 153.37L662.04 157.92C662.4 156.89 662.92 155.38 663.6 153.37C664.01 152.17 664.31 151.5 664.49 151.36L663.24 151.43V150.69H666.09V151.23C665.68 151.39 665.36 151.64 665.14 151.98C664.92 152.32 664.67 152.86 664.4 153.58L662.13 159.91C661.69 161.13 661.33 162.05 661.05 162.68C660.77 163.3 660.44 163.79 660.09 164.14C659.73 164.49 659.29 164.67 658.77 164.67C658.37 164.67 658.04 164.57 657.79 164.38Z" fill="#787878"/>
<path d="M278.52 0C275.46 0 272.27 2.61 272.27 6.38V147.5C272.22 153.17 274.15 158.7 277.27 163.36L277.29 163.39C279.06 166.04 281.22 168.42 283.62 170.37L284.8 171.26L286.05 171.98C289.88 174.56 295.24 176.1 299.47 176.1C303.7 176.1 305.73 172.52 305.73 169.74V168.93C305.07 167.32 304.42 165.71 303.78 164.1C303.78 164.12 303.78 164.15 303.79 164.18C303.78 164.13 303.76 164.08 303.75 164.03C294.83 141.66 287.63 118.83 287.98 94.08C288.18 79.57 294.34 48.8 287.96 38.05C295.4 50.59 290.76 79.78 291.26 94.1C291.78 109.21 294.25 124.21 297.98 138.78C295.8 125.29 295.15 111.03 299.82 103.62C295.02 112.92 298.03 133.57 301 149.6C302.46 154.44 304.04 159.22 305.73 163.94V26.48C305.72 11.78 291.38 0 278.52 0Z" fill="#787878"/>
</g>
<defs>
<clipPath id="clip0_138_129">
<rect width="666.29" height="176.11" fill="white"/>
</clipPath>
</defs>
</svg>
