<svg width="121" height="121" viewBox="0 0 121 121" fill="none" xmlns="http://www.w3.org/2000/svg">
<g clip-path="url(#clip0_138_120)">
<path d="M32.14 33.1499H31.86C31.03 33.1499 30.31 33.3899 29.73 33.8599C29.14 34.3399 28.85 34.9499 28.85 35.6999H28.79V68.2799H28.85C28.85 69.0299 29.14 69.6499 29.73 70.1199C30.32 70.5999 31.03 70.8299 31.86 70.8299H32.26C35.18 70.8299 37.47 69.2999 39.14 66.2499C40.81 63.1999 41.64 58.6999 41.64 52.7499C41.64 39.6699 38.47 33.1299 32.14 33.1299V33.1499Z" fill="#787878"/>
<path d="M41.34 80.97C42.03 80.58 42.53 80.16 42.83 79.7C43.14 79.25 43.29 78.71 43.29 78.11C43.29 77.42 43.14 76.9 42.84 76.53C42.54 76.16 42.11 75.98 41.55 75.98C41.23 75.98 40.97 76.04 40.76 76.17C40.55 76.3 40.37 76.46 40.23 76.66C40.1 76.85 40 77.05 39.94 77.27C39.88 77.49 39.85 77.68 39.85 77.85C39.85 78.31 39.97 78.78 40.21 79.26C40.45 79.73 40.83 80.31 41.34 80.98V80.97Z" fill="#787878"/>
<path d="M75.41 87.1501C74.61 87.1501 73.77 87.7001 72.88 88.7901C72 89.8901 71.26 91.3101 70.67 93.0701C70.08 94.8301 69.79 96.6301 69.79 98.4601C69.79 99.6001 69.94 100.46 70.25 101.04C70.56 101.62 70.96 101.91 71.47 101.91C72.23 101.91 73.02 101.4 73.86 100.39C74.69 99.3801 75.39 98.0101 75.96 96.2801C76.53 94.5501 76.83 92.6801 76.88 90.6501C76.9 89.4101 76.77 88.5201 76.5 87.9801C76.23 87.4401 75.87 87.1601 75.43 87.1401L75.41 87.1501Z" fill="#787878"/>
<path d="M85.65 80.9199C86.82 82.0899 88.42 82.6799 90.43 82.6799C92.44 82.6799 94.1 82.1299 95.18 81.0299C96.26 79.9299 96.8 78.5099 96.8 76.7699C96.8 75.0299 96.26 73.6799 95.18 72.9599C94.1 72.2399 92.63 71.8799 90.77 71.8799C89.59 71.8799 87.91 72.0299 85.71 72.3399C84.5 73.3299 83.89 74.6699 83.89 76.3799C83.89 78.2399 84.48 79.7499 85.65 80.9299V80.9199Z" fill="#787878"/>
<path d="M40.07 82.4399C39.52 82.8199 39.14 83.2599 38.91 83.7699C38.68 84.2799 38.57 84.8599 38.57 85.5099C38.57 86.4299 38.83 87.1899 39.35 87.7899C39.87 88.3899 40.57 88.6899 41.45 88.6899C41.94 88.6899 42.43 88.5799 42.9 88.3699C43.37 88.1599 43.76 87.8499 44.07 87.4499C43.44 86.6599 42.74 85.7799 41.95 84.8399C41.17 83.8899 40.54 83.0899 40.07 82.4399Z" fill="#787878"/>
<path d="M65 71.4802C66.48 71.4802 67.61 70.4502 68.38 68.3802C69.16 66.3102 69.55 63.2302 69.55 59.1402C69.55 50.3502 67.75 45.9502 64.15 45.9502C62.56 45.9502 61.34 46.9802 60.51 49.0502C59.68 51.1202 59.26 54.2202 59.26 58.3502C59.26 62.7102 59.74 65.9902 60.71 68.1902C61.68 70.3902 63.11 71.4902 65 71.4902V71.4802Z" fill="#787878"/>
<path d="M60.27 0.100098C27.04 0.100098 0.100006 27.0401 0.100006 60.2701C0.100006 93.5001 27.04 120.44 60.27 120.44C93.5 120.44 120.44 93.5001 120.44 60.2701C120.44 27.0401 93.5 0.100098 60.27 0.100098ZM60.27 11.0301C62.9 11.0301 65.03 13.1601 65.03 15.7901C65.03 18.4201 62.9 20.5501 60.27 20.5501C57.64 20.5501 55.51 18.4201 55.51 15.7901C55.51 13.1601 57.64 11.0301 60.27 11.0301ZM53.63 50.9001C54.65 48.6301 56.09 46.8701 57.95 45.6401C59.81 44.4101 61.99 43.7901 64.49 43.7901C66.99 43.7901 69.12 44.4001 70.97 45.6101C72.83 46.8201 74.26 48.5401 75.26 50.7601C76.26 52.9801 76.77 55.5501 76.77 58.4701C76.77 61.3901 76.27 64.1701 75.26 66.4601C74.26 68.7501 72.83 70.5301 70.99 71.7801C69.15 73.0301 67 73.6601 64.54 73.6601C62.08 73.6601 59.85 73.0501 57.97 71.8401C56.09 70.6301 54.64 68.9001 53.62 66.6701C52.6 64.4301 52.08 61.8401 52.08 58.8801C52.08 55.9201 52.59 53.1901 53.62 50.9201L53.63 50.9001ZM29.01 73.5901L26.68 73.5301L18.09 73.6501C17.9 73.6501 17.77 73.5901 17.69 73.4701C17.61 73.3501 17.58 73.0901 17.58 72.7001V72.4001C17.58 72.0001 17.64 71.7401 17.75 71.6001C17.86 71.4601 18.03 71.3701 18.26 71.3301C19.25 71.1301 20.03 70.7701 20.62 70.2301C21.21 69.7001 21.5 69.0501 21.5 68.3001V35.7001C21.5 34.9501 21.21 34.3001 20.62 33.7701C20.03 33.2301 19.25 32.8701 18.26 32.6701C18.03 32.6301 17.86 32.5401 17.75 32.4001C17.64 32.2601 17.58 31.9901 17.58 31.6001V31.3001C17.58 30.9001 17.62 30.6501 17.69 30.5301C17.77 30.4101 17.9 30.3501 18.09 30.3501C19.46 30.3501 20.67 30.3701 21.73 30.4101L27.42 30.5301L29.07 30.4701C30.13 30.3901 31.02 30.3501 31.74 30.3501C35.57 30.3501 38.82 31.2901 41.49 33.1701C44.16 35.0501 46.18 37.6101 47.55 40.8401C48.91 44.0701 49.6 47.6901 49.6 51.6901C49.6 56.0501 48.87 59.8901 47.41 63.2001C45.95 66.5101 43.87 69.0801 41.18 70.9001C38.49 72.7201 35.34 73.6301 31.74 73.6301C30.68 73.6301 29.77 73.6101 29.01 73.5701V73.5901ZM50.43 81.4101C50.03 81.4401 49.63 81.5201 49.23 81.6501C48.83 81.7701 48.52 81.9701 48.3 82.2401C48.16 82.4001 48.02 82.6401 47.87 82.9601C47.73 83.2801 47.55 83.6501 47.35 84.0801C47.15 84.5101 46.94 84.9401 46.73 85.3501C46.52 85.7701 46.25 86.1901 45.92 86.6001C46.19 86.9201 46.52 87.2801 46.91 87.6601C47.3 88.0401 47.63 88.3201 47.91 88.4801C48.18 88.6401 48.56 88.7701 49.06 88.8701C49.56 88.9701 49.96 89.0401 50.28 89.0501V89.7701H46.12L44.61 88.0501C44.39 88.2901 44.13 88.5401 43.85 88.8001C43.56 89.0601 43.26 89.2801 42.95 89.4701C42.6 89.6701 42.25 89.8301 41.89 89.9401C41.54 90.0501 41.12 90.1101 40.64 90.1101C40.16 90.1101 39.65 90.0401 39.15 89.8901C38.66 89.7501 38.21 89.5101 37.81 89.2001C37.42 88.8901 37.1 88.4901 36.86 88.0101C36.62 87.5201 36.5 86.9501 36.5 86.2701C36.5 85.4301 36.72 84.6801 37.16 84.0001C37.6 83.3201 38.42 82.6001 39.63 81.8401C39.08 81.1201 38.66 80.5001 38.36 79.9701C38.06 79.4401 37.91 78.8501 37.91 78.2001C37.91 77.7401 38 77.3101 38.19 76.9201C38.38 76.5301 38.64 76.1901 38.97 75.9001C39.28 75.6401 39.66 75.4301 40.1 75.2801C40.54 75.1301 41 75.0601 41.45 75.0601C41.99 75.0601 42.46 75.1501 42.87 75.3201C43.28 75.4901 43.61 75.7201 43.87 75.9901C44.11 76.2501 44.29 76.5401 44.41 76.8801C44.53 77.2201 44.6 77.5501 44.6 77.8901C44.6 78.7001 44.35 79.3901 43.85 79.9801C43.35 80.5601 42.66 81.0901 41.78 81.5501C42.41 82.4101 43.03 83.1901 43.64 83.8901C44.25 84.5901 44.83 85.2901 45.39 85.9701C45.84 85.2501 46.19 84.5701 46.44 83.9301C46.69 83.2901 46.81 82.7301 46.81 82.2501C46.81 82.0301 46.65 81.8601 46.34 81.7401C46.03 81.6201 45.59 81.5001 45.04 81.3801V80.6601H50.45V81.3801L50.43 81.4101ZM66.47 85.3301C66.53 83.4301 66.33 82.0701 65.85 81.2401C65.38 80.4101 64.64 79.9901 63.65 79.9901C62.22 79.9901 60.86 80.8001 59.57 82.4101C58.28 84.0201 57.25 86.0201 56.47 88.4001C55.69 90.7801 55.3 93.0301 55.3 95.1301C55.3 97.2301 55.64 98.7401 56.31 99.6501C56.98 100.56 57.95 101.01 59.22 101.01C60.1 101.01 60.96 100.79 61.8 100.36C62.63 99.9301 63.49 99.2801 64.38 98.4201C64.49 98.3101 64.6 98.2601 64.73 98.2601C64.86 98.2601 64.96 98.3001 65.05 98.3901L65.11 98.4501C65.17 98.5101 65.21 98.5801 65.21 98.6401C65.21 98.7501 65.13 98.9001 64.96 99.1101C62.87 101.58 60.51 102.81 57.88 102.81C56.07 102.81 54.65 102.22 53.61 101.04C52.58 99.8601 52.06 98.0801 52.06 95.7001C52.06 93.0901 52.56 90.4901 53.56 87.9101C54.56 85.3301 55.98 83.2001 57.83 81.5301C59.67 79.8601 61.78 79.0201 64.14 79.0201C65 79.0201 65.87 79.1401 66.75 79.3701C67.62 79.6001 68.26 79.8801 68.66 80.1901C68.81 80.3201 68.88 80.4701 68.88 80.6601C68.88 80.7901 68.85 80.9301 68.79 81.1001L67.53 85.2701C67.51 85.3801 67.45 85.4601 67.36 85.5401C67.27 85.6101 67.17 85.6501 67.06 85.6501H66.84C66.61 85.6501 66.49 85.5401 66.49 85.3301H66.47ZM75.73 100.9C74.42 102.17 72.92 102.81 71.21 102.81C69.92 102.81 68.88 102.36 68.08 101.45C67.28 100.54 66.88 99.2901 66.88 97.6901C66.88 96.2201 67.24 94.5801 67.95 92.7801C68.67 90.9801 69.69 89.4501 71.03 88.1801C72.37 86.9201 73.92 86.2801 75.69 86.2801C76.91 86.2801 77.9 86.7301 78.65 87.6201C79.4 88.5201 79.77 89.7501 79.77 91.3301C79.77 92.8001 79.42 94.4501 78.73 96.2601C78.03 98.0701 77.03 99.6201 75.73 100.89V100.9ZM80.53 102.81C79.72 102.81 79.07 102.16 79.07 101.35C79.07 100.54 79.72 99.8901 80.53 99.8901C81.34 99.8901 81.99 100.54 81.99 101.35C81.99 102.16 81.34 102.81 80.53 102.81ZM102.71 46.7601C102.71 47.2101 102.63 47.5401 102.48 47.7301C102.33 47.9201 102.03 48.0101 101.57 48.0101L98.33 47.9501C99.58 49.4301 100.21 51.1701 100.21 53.1801C100.21 56.1801 99.3 58.5201 97.48 60.2001C95.66 61.8901 93.1 62.7301 89.8 62.7301H89.57C87.71 62.7301 86.36 62.9501 85.5 63.3801C84.65 63.8201 84.22 64.3401 84.22 64.9401C84.22 65.2801 84.38 65.5201 84.7 65.6501C85.02 65.7801 85.51 65.8501 86.15 65.8501C86.87 65.8501 87.69 65.7901 88.6 65.6801C90.76 65.5701 91.97 65.5101 92.24 65.5101C95.08 65.5101 97.39 66.1701 99.15 67.5001C100.91 68.8301 101.79 71.3301 101.79 75.0101C101.79 76.9401 101.19 78.7201 100 80.3601C98.81 81.9901 97.16 83.2901 95.05 84.2601C92.95 85.2301 90.57 85.7101 87.91 85.7101C85.52 85.7101 83.53 85.3701 81.94 84.6901C80.35 84.0101 79.17 83.1301 78.41 82.0501C77.65 80.9701 77.27 79.8001 77.27 78.5501C77.27 77.3001 77.64 76.2101 78.38 75.1701C79.12 74.1301 80.4 73.0401 82.22 71.9001C81.61 71.3301 81.01 70.5201 80.4 69.4501L78.98 67.1801C78.68 66.6501 78.53 66.1601 78.53 65.7001C78.53 64.9001 78.98 64.1601 79.89 63.4801C80.19 63.2201 81.16 62.6801 82.79 61.8901L83.87 61.3801C82.39 60.6201 81.23 59.5401 80.4 58.1401C79.57 56.7401 79.15 55.1301 79.15 53.3101C79.15 50.2001 80.09 47.7801 81.96 46.0601C83.84 44.3401 86.44 43.4701 89.78 43.4701C90.88 43.4701 92.23 43.7401 93.82 44.2701C94.01 44.3101 94.44 44.4201 95.1 44.6101C95.76 44.8001 96.4 44.8901 97 44.8901L99.16 44.8301C99.69 44.7901 100.41 44.7701 101.32 44.7701C101.85 44.7701 102.21 44.8501 102.4 45.0001C102.59 45.1501 102.68 45.4401 102.68 45.8501V46.7601H102.71Z" fill="#787878"/>
<path d="M89.57 45.6001C88.28 45.6001 87.38 46.1801 86.87 47.3301C86.36 48.4901 86.1 50.3401 86.1 52.8701C86.1 57.9901 87.45 60.5501 90.14 60.5501C92.19 60.5501 93.21 58.1401 93.21 53.3301C93.21 50.7901 92.87 48.8701 92.19 47.5601C91.51 46.2501 90.64 45.6001 89.57 45.6001Z" fill="#787878"/>
</g>
<defs>
<clipPath id="clip0_138_120">
<rect width="120.44" height="120.44" fill="white"/>
</clipPath>
</defs>
</svg>
