<?xml version="1.0" encoding="UTF-8"?><svg id="Layer_1" xmlns="http://www.w3.org/2000/svg" viewBox="0 0 666.29 176.11"><defs><style>.cls-1{fill:#f5bb00;}</style></defs><path class="cls-1" d="M459.11,116.77V57.04h-20.55v59.74c-.11,4.17-.15,22.39-.15,22.39h20.85s-.04-18.22-.15-22.39Z"/><path class="cls-1" d="M137.68,60.86c-5.29-4.17-13.06-6.17-23.03-5.96-4.31,.11-8.32,.92-11.92,2.42-3.59,1.49-6.88,3.5-9.8,5.98-2.92,2.48-5.44,5.41-7.48,8.72-.96,1.56-1.82,3.18-2.58,4.85-.54-6.87-3.22-12.25-7.98-16.02-5.29-4.17-13.06-6.18-23.03-5.96-4.53,.11-8.74,1.01-12.51,2.67-3.74,1.65-7.13,3.86-10.06,6.57-2.92,2.71-5.43,5.91-7.46,9.53-.86,1.53-1.62,3.09-2.3,4.69v-.03c-.7,1.59-3.2,7.83-4.89,19.88-.75,5.38-2.97-15.33,4.89-30.53v-11.33H1.74s-1.74,.02-1.74,.02v82.11H19.55v-42.51c0-4.68,.76-9.33,2.27-13.8,.59-1.76,1.32-3.43,2.12-5.04,11.56-18.47,21.68-17.6,28.59-12.79,6.21,4.33,9.6,11.7,9.6,19.27v54.88h3.8l.12-1.88v1.88h16.91v-49.71c.73-3.96,1.99-7.81,3.77-11.46,11.61-18.67,21.78-17.81,28.71-12.98,6.21,4.33,9.6,11.7,9.6,19.27v54.88h20.73v-58.94c0-8.16-2.72-14.45-8.08-18.68Z"/><path class="cls-1" d="M500.94,79.04s.02-.05,.03-.07c-.01,.03-.02,.04-.03,.07h0Z"/><polygon class="cls-1" points="483.22 57.04 483.21 57.04 483.43 57.04 483.22 57.04"/><polygon class="cls-1" points="483.69 139.16 484.37 139.16 483.69 139.16 483.69 139.16"/><polygon class="cls-1" points="484.97 139.16 484.97 139.15 484.37 139.16 484.97 139.16"/><polygon class="cls-1" points="484.51 57.03 483.43 57.04 484.51 57.04 484.51 57.03"/><path class="cls-1" d="M564.39,139.16s-.02-9.58-.02-12.17v-46.77c0-8.16-2.72-14.45-8.08-18.68-5.29-4.17-13.06-6.19-23.03-5.96-4.53,.11-8.74,1.01-12.51,2.67-3.75,1.65-7.13,3.86-10.05,6.56-2.92,2.7-5.43,5.91-7.46,9.53-.8,1.42-1.52,2.89-2.16,4.38h0s-.04,.09-.11,.23c-.01,.02-.02,.05-.03,.07h0c-.62,1.39-3.21,7.65-4.94,20.01-.76,5.39-2.98-15.43,4.94-30.64v-11.37h-17.73s-2.18,.02-2.18,.02v82.11h3.93s16.11-.13,16.11-.13c0,0-.18-10.9-.14-22.26v-20.12c0-4.69,.76-9.33,2.27-13.8,.64-1.89,1.42-3.69,2.3-5.41,11.46-18.08,21.49-17.21,28.36-12.43,6.21,4.33,9.6,11.7,9.6,19.27v54.88h3.8l.07-1.1c0,.68-.01,1.11-.01,1.11h17.06Z"/><path class="cls-1" d="M501.08,78.74h0c-.03,.07-.07,.15-.11,.23,.07-.14,.11-.23,.11-.23Z"/><path class="cls-1" d="M443.48,31.65c1.79-6.65,7.7-8.2,11.53-8.5-1.81-1.28-3.99-1.95-6.53-1.95-3.21,0-5.85,1.02-7.87,3.04-2.02,2.02-3.04,4.73-3.04,8.07s1.02,6.26,3.04,8.27c2.01,2.02,4.66,3.04,7.87,3.04s5.85-1.02,7.87-3.04c2.02-2.02,3.04-4.8,3.04-8.28,0-2.51-.58-4.66-1.73-6.44-7.71-1.3-14.19,5.78-14.19,5.78Z"/><path class="cls-1" d="M247.71,75.38c-2.14-4.39-4.99-8.04-8.45-10.84-3.46-2.8-7.49-4.88-11.98-6.19,0,0,.05,.08,.09,.14-1.26-.53-2.54-1.01-3.88-1.4-6.2-1.82-12.77-2.34-19.22-1.71-14.24,1.01-25.22,6.73-25.22,6.73v3.15h0v11.72l2.14-3.92c1.22-2.22,2.89-4.26,4.97-6.04,2.12-1.81,4.5-3.35,7.08-4.59,2.58-1.24,5.4-2.22,8.37-2.89,5.9-1.34,11.65-1.35,16.59-.01,2.42,.66,4.56,1.7,6.36,3.1,1.79,1.39,3.22,3.18,4.27,5.32,1.04,2.14,1.57,4.76,1.57,7.79v11.83c-.78-1.16-1.66-2.23-2.64-3.22-2.07-2.06-4.49-3.81-7.21-5.2-2.69-1.37-5.63-2.44-8.71-3.16-7.09-1.64-14.9-1.41-22.48,.82-4.3,1.27-8.18,3.2-11.55,5.74-3.38,2.55-6.22,5.78-8.43,9.59-2.23,3.85-3.47,8.44-3.7,13.65-.22,5.62,.65,10.59,2.6,14.77,1.94,4.16,4.56,7.63,7.79,10.3,3.21,2.66,6.97,4.68,11.17,6.01,7.39,2.34,15.41,2.58,23.06,.83,3.35-.77,6.51-1.94,9.38-3.49,2.87-1.55,5.45-3.46,7.67-5.67,.59-.59,1.13-1.21,1.65-1.85l-.06,.08s2.4-2.41,3.76-5.42h0c1.51-2.88,3.46-7.98,4.72-16.44,.64-4.33,2.32,7.66-2.7,19.1-.46,1.06-.98,2.11-1.57,3.15-.76,1.35-1.63,2.66-2.63,3.92v7.29h20.33v-16.6c.05-2.14,.08-3.53,.08-4.18v-26.36c0-6.11-1.09-11.43-3.23-15.83Zm-25.31,51.19c-2.09,1.5-4.45,2.68-7,3.5-5.18,1.66-10.71,1.68-15.82-.2-2.56-.94-4.83-2.44-6.75-4.46-1.94-2.02-3.49-4.69-4.63-7.91-1.14-3.24-1.63-7.17-1.44-11.68,.18-4.13,.94-7.7,2.26-10.61,1.32-2.9,3.01-5.34,5.05-7.24,2.02-1.89,4.35-3.28,6.91-4.13,4.95-1.65,10.33-1.72,15.23-.28,2.32,.69,4.49,1.65,6.45,2.88,1.93,1.21,3.59,2.74,4.94,4.53,1.32,1.76,2.26,3.71,2.79,5.8v17.28c-.35,2.59-1.25,4.96-2.68,7.06-1.45,2.13-3.24,3.96-5.32,5.45Z"/><path class="cls-1" d="M662.92,75.78c-2.14-4.39-4.99-8.04-8.45-10.84-3.46-2.8-7.49-4.88-11.98-6.19,0,0,.05,.08,.09,.14-1.26-.53-2.54-1.01-3.88-1.4-6.2-1.82-12.77-2.34-19.22-1.71-14.24,1.01-25.22,6.73-25.22,6.73v3.15h0v11.72l2.14-3.92c1.22-2.22,2.89-4.26,4.97-6.04,2.12-1.81,4.5-3.35,7.08-4.59,2.58-1.24,5.4-2.22,8.37-2.89,5.9-1.34,11.65-1.35,16.59-.01,2.42,.66,4.56,1.7,6.36,3.1,1.79,1.39,3.22,3.18,4.27,5.32,1.04,2.14,1.57,4.76,1.57,7.79v11.83c-.78-1.16-1.66-2.23-2.64-3.22-2.07-2.06-4.49-3.81-7.21-5.2-2.69-1.37-5.63-2.44-8.71-3.16-7.09-1.64-14.9-1.41-22.48,.82-4.3,1.27-8.18,3.2-11.55,5.74-3.38,2.55-6.22,5.78-8.43,9.59-2.23,3.85-3.47,8.44-3.7,13.65-.22,5.62,.65,10.59,2.6,14.77,1.94,4.16,4.56,7.63,7.79,10.3,3.21,2.66,6.97,4.68,11.17,6.01,7.39,2.34,15.41,2.58,23.06,.83,3.35-.77,6.51-1.94,9.38-3.49,2.87-1.55,5.45-3.46,7.67-5.67,.59-.59,1.13-1.21,1.65-1.85l-.06,.08s2.4-2.41,3.76-5.42h0c1.51-2.88,3.46-7.98,4.72-16.44,.64-4.33,2.32,7.66-2.7,19.1-.46,1.06-.98,2.11-1.57,3.15-.76,1.35-1.63,2.66-2.63,3.92v7.29h20.33v-16.6c.05-2.14,.08-3.53,.08-4.18v-26.36c0-6.11-1.09-11.43-3.23-15.83Zm-25.31,51.19c-2.09,1.5-4.45,2.68-7,3.5-5.18,1.66-10.71,1.68-15.82-.2-2.56-.94-4.83-2.44-6.75-4.46-1.94-2.02-3.49-4.69-4.63-7.91-1.14-3.24-1.63-7.17-1.44-11.68,.18-4.13,.94-7.7,2.26-10.61,1.32-2.9,3.01-5.34,5.05-7.24,2.02-1.89,4.35-3.28,6.91-4.13,4.95-1.65,10.33-1.72,15.23-.28,2.32,.69,4.49,1.65,6.45,2.88,1.93,1.21,3.59,2.74,4.94,4.53,1.32,1.76,2.26,3.71,2.79,5.8v17.28c-.35,2.59-1.25,4.96-2.68,7.06-1.45,2.13-3.24,3.96-5.32,5.45Z"/><path class="cls-1" d="M305.72,86.21c-.52-4.58-1.32-9.78-2.43-15.08l2.43,15.08Z"/><path class="cls-1" d="M322.91,67.83c5.92-7.67,13.28-13.58,21.89-17.98,1.71-.87,3.45-1.66,5.22-2.39,2.84-2.68,5.24-5.76,6.91-9.4-1.03,3.27-2.78,6.14-4.99,8.65,1.17-.45,2.34-.89,3.52-1.3,2.81-.98,5.63-1.93,8.43-2.92,2.06-.73,4.08-1.58,5.99-2.66,1.33-.75,2.58-1.62,3.7-2.66,.11-.1,.21-.25,.46-.28-.1,.17-.16,.3-.25,.39-.52,.55-1.03,1.13-1.59,1.64-1.26,1.17-2.65,2.17-4.07,3.14-3.09,2.11-6.33,3.97-9.62,5.74-3.71,2-7.47,3.88-11.29,5.65-7.82,3.62-14.46,8.76-20.06,15.29-1.88,2.19-3.63,4.48-5.33,6.81-3.65,5-7.05,10.16-10.23,15.45,8.59-6.18,23.76-14.91,29.24-17.15,10.46-4.27,21.57-7.77,32.51-10.1,11.3-2.41,36.75-4.1,49.71-43.58,1.44-4.39,8.37-21.22,3.05-20.09-27.84,5.92-41.12,1.73-59.7,10.29-16.44,7.57-30.55,19.16-40.52,34.72-7.41,11.56-11.87,30.94-16.04,45.16,1.55-3.41,3.21-6.78,5.04-10.07,2.38-4.3,5-8.44,8.01-12.33Z"/><path class="cls-1" d="M428.22,172.61c-14.05-23.85-14.72-37.38-28.05-51.88-11.8-12.83-26.3-22.27-42.88-26.67-12.05-3.2-32-2.77-45.68-.98,1.13,.06,2.26,.08,3.39,.17,6.14,.49,12.2,1.46,18.12,3.21,4.71,1.4,9.22,3.3,13.54,5.65,7.84,4.27,14.76,9.69,20.7,16.36,1.85,2.07,3.56,4.25,5.01,6.62,.5,.82,.93,1.68,1.38,2.52,.11,.21,.16,.44,.29,.8-.21-.13-.31-.17-.36-.23-2.56-3.43-5.6-6.42-8.8-9.24-5.68-5-11.89-9.25-18.47-12.95,4.34,3.68,7.77,8.29,9.12,13.87-2.63-6.93-7.89-12.16-13.85-16.42-1.65-.84-3.32-1.65-5.03-2.36-1.87-.78-3.77-1.47-5.69-2.1-3.55-1.17-7.16-2.07-10.81-2.86-2.93-.64-5.88-1.11-8.84-1.52,6.33,2.89,17.78,10.03,28.95,22.95,7.09,8.19,10.75,16.68,16.27,26.05,5.71,9.68,15.35,32.62,53.45,32.41,4.23-.02,20.93,1.18,18.25-3.37Z"/><path class="cls-1" d="M303.78,164.18s0-.05-.01-.08c0-.02-.02-.05-.03-.07,.01,.05,.03,.1,.04,.15Z"/><g><path class="cls-1" d="M438.4,159.16c.42-.01,.72-.11,.91-.29s.28-.4,.31-.64,.04-.68,.04-1.3v-7.83c0-.51,.02-.94,.05-1.31l-1.31,.07v-.8h8.72l.09,3.17h-.6c0-.99-.21-1.67-.64-2.03-.43-.36-1.03-.53-1.81-.51l-1.56,.04c-.44,.01-.75,.09-.94,.25s-.31,.36-.36,.63-.07,.7-.07,1.28v2.9l3.41,.02-.13-1.56h.8v3.81h-.6c0-.45-.05-.79-.16-1.02-.11-.24-.27-.39-.5-.47-.22-.08-.54-.12-.93-.12l-.56,.02-1.32,.05v4.15c0,.63-.02,1.1-.05,1.41l3.46-.05c.85-.01,1.49-.23,1.94-.64,.45-.42,.67-1.14,.67-2.17h.62l-.11,3.54h-9.36v-.6Z"/><path class="cls-1" d="M449.48,159.21c.35,0,.6-.09,.75-.26,.15-.17,.24-.4,.27-.67,.03-.27,.05-.7,.05-1.28v-4.13c0-.51,.02-.9,.07-1.18l-1.29,.05v-.74h.56c.46,0,.79-.04,1-.12s.4-.2,.58-.37h.53c.05,.47,.08,1.07,.09,1.8,.3-.5,.74-.94,1.3-1.32s1.15-.58,1.75-.58c.36,0,.66,.1,.91,.29s.36,.48,.36,.85c0,.19-.08,.39-.23,.58s-.37,.29-.64,.29-.48-.1-.65-.3c-.17-.2-.23-.44-.2-.72-.46-.01-.92,.16-1.39,.53-.46,.36-.86,.85-1.19,1.45l.02,4.46c0,.54-.03,.96-.07,1.23l1.14-.05v.74h-3.72v-.54Z"/><path class="cls-1" d="M457.33,159.21c.35,0,.6-.09,.75-.26,.15-.17,.24-.4,.27-.67,.03-.27,.05-.7,.05-1.28v-4.13c0-.35,.02-.74,.07-1.18l-1.29,.07v-.76c.71,0,1.23-.04,1.53-.13s.55-.21,.72-.36h.53v7.33c0,.54-.02,.96-.07,1.23l1.14-.05v.74h-3.7v-.54Zm1.12-10.82c-.19-.21-.29-.46-.29-.75s.1-.54,.3-.76c.2-.22,.43-.33,.68-.33,.28,0,.51,.11,.7,.32,.19,.21,.28,.47,.28,.77s-.1,.54-.3,.75c-.2,.21-.43,.32-.7,.32s-.48-.11-.67-.32Z"/><path class="cls-1" d="M463.66,156.71l.04-5.26-1.4,.02v-.78c.58-.01,1.07-.27,1.48-.79,.4-.51,.7-1.1,.9-1.75h.62v2.54h3.05v.71l-3.05,.04c-.01,1.85-.02,3.13-.03,3.84s0,1.11,0,1.2c0,.86,.1,1.5,.31,1.91,.21,.42,.56,.63,1.07,.63,.31,0,.63-.1,.93-.29s.58-.46,.81-.8l.49,.4c-.47,.7-.94,1.16-1.4,1.39-.46,.22-.91,.34-1.34,.34-1.66,0-2.48-1.11-2.47-3.34Z"/><path class="cls-1" d="M469.73,159.21c.35,0,.6-.09,.75-.26,.15-.17,.24-.4,.27-.67,.03-.27,.05-.7,.05-1.28v-4.13c0-.51,.02-.9,.07-1.18l-1.29,.05v-.74h.56c.46,0,.79-.04,1-.12s.4-.2,.58-.37h.53c.05,.47,.08,1.07,.09,1.8,.3-.5,.74-.94,1.3-1.32s1.15-.58,1.75-.58c.36,0,.66,.1,.91,.29s.36,.48,.36,.85c0,.19-.08,.39-.23,.58s-.37,.29-.64,.29-.48-.1-.65-.3c-.17-.2-.23-.44-.2-.72-.46-.01-.92,.16-1.39,.53-.46,.36-.86,.85-1.19,1.45l.02,4.46c0,.54-.03,.96-.07,1.23l1.14-.05v.74h-3.72v-.54Z"/><path class="cls-1" d="M479.59,159.46c-.67-.39-1.2-.95-1.59-1.69-.39-.73-.58-1.57-.58-2.53,0-.85,.19-1.64,.58-2.39,.39-.74,.93-1.34,1.62-1.79s1.48-.67,2.37-.67c.69,0,1.31,.15,1.87,.45,.56,.3,1,.75,1.32,1.35,.33,.6,.49,1.33,.49,2.2l-6.38,.11c-.01,1.45,.23,2.58,.72,3.39s1.25,1.21,2.28,1.21c.56,0,1.13-.14,1.71-.44,.59-.29,1.04-.65,1.35-1.07l.44,.36c-.46,.7-1.06,1.22-1.79,1.56-.73,.34-1.45,.51-2.15,.51-.83,0-1.59-.2-2.26-.59Zm4.38-5.7c0-.73-.16-1.35-.49-1.87s-.82-.78-1.47-.78c-1.5,0-2.39,.88-2.67,2.65h4.62Z"/><path class="cls-1" d="M487.77,159.45c-.47-.4-.7-.92-.7-1.56,0-.7,.28-1.29,.84-1.78,.56-.48,1.27-.84,2.12-1.08,.85-.24,1.71-.35,2.57-.34v-1.12c0-.79-.12-1.4-.35-1.84s-.72-.66-1.47-.66c-.37,0-.73,.08-1.07,.24-.34,.16-.59,.39-.74,.71,.16,.17,.24,.4,.24,.69,0,.18-.07,.35-.2,.52-.13,.16-.33,.25-.58,.25s-.45-.08-.6-.25c-.14-.16-.22-.38-.22-.64,0-.4,.15-.76,.46-1.1,.31-.33,.74-.6,1.29-.79s1.16-.29,1.84-.29c1.02,0,1.77,.27,2.25,.81,.48,.54,.72,1.39,.71,2.55l-.02,4.08c0,.39-.02,.8-.07,1.23l1.29-.07v.76h-2.59c-.04-.18-.08-.53-.13-1.03-.88,.88-1.83,1.32-2.85,1.32-.88,0-1.56-.2-2.02-.6Zm3.69-.7c.37-.18,.76-.44,1.14-.81-.01-.18-.02-.49-.02-.92l.02-1.71c-.99,.04-1.87,.24-2.65,.61-.77,.37-1.16,.93-1.16,1.7,0,.45,.13,.79,.4,1.03,.27,.24,.61,.36,1.02,.36,.46,0,.88-.09,1.25-.26Z"/><path class="cls-1" d="M496.61,159.21c.35,0,.6-.09,.75-.26,.15-.17,.24-.39,.26-.65,.02-.26,.04-.69,.05-1.3l.02-4.13c0-.51,.02-.9,.07-1.18l-1.29,.07v-.76c.71,0,1.2-.04,1.47-.12s.49-.2,.67-.37h.53c.02,.23,.05,.6,.07,1.11,.41-.36,.88-.66,1.41-.88,.53-.22,1.04-.34,1.55-.34,1.05,0,1.82,.33,2.3,.99,.48,.66,.72,1.68,.72,3.07v3.37c0,.54-.02,.96-.07,1.23l1.14-.05v.74h-3.7v-.54c.35,0,.6-.09,.75-.26,.15-.17,.24-.4,.27-.67,.03-.27,.04-.7,.04-1.28v-2.54c-.01-1.04-.18-1.82-.51-2.35-.33-.53-.84-.79-1.54-.79-.44,0-.87,.11-1.3,.33-.43,.22-.78,.5-1.06,.85,.01,.13,.02,.37,.02,.71l-.02,4.62c0,.54-.02,.96-.07,1.23l1.14-.05v.74h-3.7v-.54Z"/><path class="cls-1" d="M512.81,153.32h6.44v1.2l-6.44,.07v-1.27Z"/><path class="cls-1" d="M526.23,159.16c.42-.01,.72-.11,.91-.29s.28-.4,.31-.64,.04-.68,.04-1.3v-7.83c0-.51,.02-.94,.05-1.31l-1.31,.07v-.8h8.72l.09,3.17h-.6c0-.99-.21-1.67-.64-2.03-.43-.36-1.03-.53-1.81-.51l-1.56,.04c-.44,.01-.75,.09-.94,.25s-.31,.36-.36,.63-.07,.7-.07,1.28v2.9l3.41,.02-.13-1.56h.8v3.81h-.6c0-.45-.05-.79-.16-1.02-.11-.24-.27-.39-.5-.47-.22-.08-.54-.12-.93-.12l-.56,.02-1.32,.05v4.15c0,.63-.02,1.1-.05,1.41l3.46-.05c.85-.01,1.49-.23,1.94-.64,.45-.42,.67-1.14,.67-2.17h.62l-.11,3.54h-9.36v-.6Z"/><path class="cls-1" d="M538.15,156.71l.04-5.26-1.4,.02v-.78c.58-.01,1.07-.27,1.48-.79,.4-.51,.7-1.1,.9-1.75h.62v2.54h3.05v.71l-3.05,.04c-.01,1.85-.02,3.13-.03,3.84s0,1.11,0,1.2c0,.86,.1,1.5,.31,1.91,.21,.42,.56,.63,1.07,.63,.31,0,.63-.1,.93-.29s.58-.46,.81-.8l.49,.4c-.47,.7-.94,1.16-1.4,1.39-.46,.22-.91,.34-1.34,.34-1.66,0-2.48-1.11-2.47-3.34Z"/><path class="cls-1" d="M544.04,159.21c.35,0,.6-.09,.76-.26,.16-.17,.25-.4,.28-.68,.03-.28,.05-.7,.05-1.27v-8.58c0-.46,.02-.85,.05-1.18l-1.29,.07v-.76c.73,0,1.24-.04,1.55-.13,.31-.08,.55-.21,.72-.36h.53v5.53c.42-.35,.9-.64,1.43-.86,.53-.22,1.04-.34,1.54-.34,1.04,0,1.8,.33,2.27,.98,.47,.65,.71,1.68,.73,3.08l.02,3.37c0,.54-.03,.96-.07,1.23l1.14-.05v.74h-3.7v-.54c.35,0,.6-.09,.75-.26,.15-.17,.24-.4,.27-.67,.03-.27,.05-.7,.05-1.28v-2.54c0-1.04-.16-1.82-.49-2.33-.33-.51-.84-.77-1.54-.77-.45,0-.89,.1-1.33,.32-.44,.21-.8,.48-1.06,.81v5.35c0,.47-.03,.88-.09,1.23l1.14-.05v.74h-3.7v-.54Z"/><path class="cls-1" d="M555.08,159.21c.35,0,.6-.09,.75-.26,.15-.17,.24-.4,.27-.67,.03-.27,.05-.7,.05-1.28v-4.13c0-.35,.02-.74,.07-1.18l-1.29,.07v-.76c.71,0,1.23-.04,1.53-.13s.55-.21,.72-.36h.53v7.33c0,.54-.02,.96-.07,1.23l1.14-.05v.74h-3.7v-.54Zm1.12-10.82c-.19-.21-.29-.46-.29-.75s.1-.54,.3-.76c.2-.22,.43-.33,.68-.33,.28,0,.51,.11,.7,.32,.19,.21,.28,.47,.28,.77s-.1,.54-.3,.75c-.2,.21-.43,.32-.7,.32s-.48-.11-.67-.32Z"/><path class="cls-1" d="M562.38,159.46c-.7-.39-1.25-.94-1.65-1.64-.4-.7-.61-1.49-.61-2.38,0-.94,.2-1.8,.6-2.57,.4-.77,.95-1.37,1.64-1.81s1.47-.66,2.31-.66,1.6,.2,2.3,.61c.7,.41,1.25,.96,1.66,1.66,.4,.7,.61,1.48,.61,2.34,0,.92-.2,1.77-.61,2.54-.41,.77-.95,1.38-1.65,1.83s-1.47,.67-2.31,.67-1.6-.2-2.29-.59Zm4.39-1.22c.42-.73,.63-1.63,.63-2.7,0-1.22-.23-2.27-.68-3.14-.45-.87-1.13-1.31-2.04-1.31s-1.57,.37-2.02,1.11-.68,1.64-.68,2.72c0,.77,.11,1.5,.32,2.17,.21,.67,.53,1.21,.96,1.62,.43,.41,.95,.62,1.57,.62,.88,0,1.53-.36,1.95-1.09Z"/><path class="cls-1" d="M570.62,163.84c.35,0,.6-.09,.75-.26,.15-.18,.24-.39,.26-.65,.03-.26,.04-.69,.05-1.3l.04-8.76c0-.51,.02-.9,.07-1.18l-1.29,.07v-.76c.71,0,1.2-.04,1.47-.12,.27-.08,.48-.2,.65-.37h.54c.05,.59,.07,.92,.07,.98,.36-.33,.8-.59,1.31-.79s1.01-.3,1.5-.3c.71,0,1.37,.18,1.98,.55,.6,.37,1.09,.9,1.46,1.58,.37,.68,.55,1.47,.55,2.37,0,1-.21,1.9-.63,2.67-.42,.78-.99,1.39-1.7,1.82s-1.47,.65-2.3,.65-1.56-.2-2.18-.6v3.01c0,.54-.03,.95-.07,1.23l1.14-.05v.74h-3.7v-.54Zm6.25-5.04c.42-.35,.74-.84,.97-1.47,.23-.63,.34-1.34,.34-2.14,0-1.09-.23-2.01-.7-2.76s-1.16-1.13-2.08-1.13c-.4,0-.79,.1-1.16,.29s-.7,.44-.98,.73c.01,.08,.02,.45,.02,1.11l-.02,5.21c.62,.47,1.32,.71,2.12,.71,.57,0,1.06-.18,1.48-.53Z"/><path class="cls-1" d="M581.62,159.21c.35,0,.6-.09,.75-.26,.15-.17,.24-.4,.27-.67,.03-.27,.05-.7,.05-1.28v-4.13c0-.35,.02-.74,.07-1.18l-1.29,.07v-.76c.71,0,1.23-.04,1.53-.13s.55-.21,.72-.36h.53v7.33c0,.54-.02,.96-.07,1.23l1.14-.05v.74h-3.7v-.54Zm1.12-10.82c-.19-.21-.29-.46-.29-.75s.1-.54,.3-.76c.2-.22,.43-.33,.68-.33,.28,0,.51,.11,.7,.32,.19,.21,.28,.47,.28,.77s-.1,.54-.3,.75c-.2,.21-.43,.32-.7,.32s-.48-.11-.67-.32Z"/><path class="cls-1" d="M587.23,159.45c-.47-.4-.7-.92-.7-1.56,0-.7,.28-1.29,.84-1.78,.56-.48,1.27-.84,2.12-1.08,.85-.24,1.71-.35,2.57-.34v-1.12c0-.79-.12-1.4-.35-1.84s-.72-.66-1.47-.66c-.37,0-.73,.08-1.07,.24-.34,.16-.59,.39-.74,.71,.16,.17,.24,.4,.24,.69,0,.18-.07,.35-.2,.52-.13,.16-.33,.25-.58,.25s-.45-.08-.6-.25c-.14-.16-.22-.38-.22-.64,0-.4,.15-.76,.46-1.1,.31-.33,.74-.6,1.29-.79s1.16-.29,1.84-.29c1.02,0,1.77,.27,2.25,.81,.48,.54,.72,1.39,.71,2.55l-.02,4.08c0,.39-.02,.8-.07,1.23l1.29-.07v.76h-2.59c-.04-.18-.08-.53-.13-1.03-.88,.88-1.83,1.32-2.85,1.32-.88,0-1.56-.2-2.02-.6Zm3.69-.7c.37-.18,.76-.44,1.14-.81-.01-.18-.02-.49-.02-.92l.02-1.71c-.99,.04-1.87,.24-2.65,.61-.77,.37-1.16,.93-1.16,1.7,0,.45,.13,.79,.4,1.03,.27,.24,.61,.36,1.02,.36,.46,0,.88-.09,1.25-.26Z"/><path class="cls-1" d="M596.07,159.21c.35,0,.6-.09,.75-.26,.15-.17,.24-.39,.26-.65,.02-.26,.04-.69,.05-1.3l.02-4.13c0-.51,.02-.9,.07-1.18l-1.29,.07v-.76c.71,0,1.2-.04,1.47-.12s.49-.2,.67-.37h.53c.02,.23,.05,.6,.07,1.11,.41-.36,.88-.66,1.41-.88,.53-.22,1.04-.34,1.55-.34,1.05,0,1.82,.33,2.3,.99,.48,.66,.72,1.68,.72,3.07v3.37c0,.54-.02,.96-.07,1.23l1.14-.05v.74h-3.7v-.54c.35,0,.6-.09,.75-.26,.15-.17,.24-.4,.27-.67,.03-.27,.04-.7,.04-1.28v-2.54c-.01-1.04-.18-1.82-.51-2.35-.33-.53-.84-.79-1.54-.79-.44,0-.87,.11-1.3,.33-.43,.22-.78,.5-1.06,.85,.01,.13,.02,.37,.02,.71l-.02,4.62c0,.54-.02,.96-.07,1.23l1.14-.05v.74h-3.7v-.54Z"/><path class="cls-1" d="M612.05,159.16c.42-.01,.72-.11,.91-.29s.28-.4,.31-.64,.04-.68,.04-1.3v-7.83c0-.51,.02-.94,.05-1.31l-1.31,.07v-.8h8.72l.09,3.17h-.6c0-.99-.21-1.67-.64-2.03-.43-.36-1.03-.53-1.81-.51l-1.56,.04c-.44,.01-.75,.09-.94,.25s-.31,.36-.36,.63-.07,.7-.07,1.28v2.9l3.41,.02-.13-1.56h.8v3.81h-.6c0-.45-.05-.79-.16-1.02-.11-.24-.27-.39-.5-.47-.22-.08-.54-.12-.93-.12l-.56,.02-1.32,.05v4.15c0,.63-.02,1.1-.05,1.41l3.46-.05c.85-.01,1.49-.23,1.94-.64,.45-.42,.67-1.14,.67-2.17h.62l-.11,3.54h-9.36v-.6Z"/><path class="cls-1" d="M623.65,159.45c-.47-.4-.7-.92-.7-1.56,0-.7,.28-1.29,.84-1.78,.56-.48,1.27-.84,2.12-1.08,.85-.24,1.71-.35,2.57-.34v-1.12c0-.79-.12-1.4-.35-1.84s-.72-.66-1.47-.66c-.37,0-.73,.08-1.07,.24-.34,.16-.59,.39-.74,.71,.16,.17,.24,.4,.24,.69,0,.18-.07,.35-.2,.52-.13,.16-.33,.25-.58,.25s-.45-.08-.6-.25c-.14-.16-.22-.38-.22-.64,0-.4,.15-.76,.46-1.1,.31-.33,.74-.6,1.29-.79s1.16-.29,1.84-.29c1.02,0,1.77,.27,2.25,.81,.48,.54,.72,1.39,.71,2.55l-.02,4.08c0,.39-.02,.8-.07,1.23l1.29-.07v.76h-2.59c-.04-.18-.08-.53-.13-1.03-.88,.88-1.83,1.32-2.85,1.32-.88,0-1.56-.2-2.02-.6Zm3.69-.7c.37-.18,.76-.44,1.14-.81-.01-.18-.02-.49-.02-.92l.02-1.71c-.99,.04-1.87,.24-2.65,.61-.77,.37-1.16,.93-1.16,1.7,0,.45,.13,.79,.4,1.03,.27,.24,.61,.36,1.02,.36,.46,0,.88-.09,1.25-.26Z"/><path class="cls-1" d="M633.3,156.71l.04-5.26-1.4,.02v-.78c.58-.01,1.07-.27,1.48-.79,.4-.51,.7-1.1,.9-1.75h.62v2.54h3.05v.71l-3.05,.04c-.01,1.85-.02,3.13-.03,3.84s0,1.11,0,1.2c0,.86,.1,1.5,.31,1.91,.21,.42,.56,.63,1.07,.63,.31,0,.63-.1,.93-.29s.58-.46,.81-.8l.49,.4c-.47,.7-.94,1.16-1.4,1.39-.46,.22-.91,.34-1.34,.34-1.66,0-2.48-1.11-2.47-3.34Z"/><path class="cls-1" d="M641.51,159.46c-.67-.39-1.2-.95-1.59-1.69-.39-.73-.58-1.57-.58-2.53,0-.85,.19-1.64,.58-2.39,.39-.74,.93-1.34,1.62-1.79s1.48-.67,2.37-.67c.69,0,1.31,.15,1.87,.45,.56,.3,1,.75,1.32,1.35,.33,.6,.49,1.33,.49,2.2l-6.38,.11c-.01,1.45,.23,2.58,.72,3.39s1.25,1.21,2.28,1.21c.56,0,1.13-.14,1.71-.44,.59-.29,1.04-.65,1.35-1.07l.44,.36c-.46,.7-1.06,1.22-1.79,1.56-.73,.34-1.45,.51-2.15,.51-.83,0-1.59-.2-2.26-.59Zm4.38-5.7c0-.73-.16-1.35-.49-1.87s-.82-.78-1.47-.78c-1.5,0-2.39,.88-2.67,2.65h4.62Z"/><path class="cls-1" d="M649.21,159.21c.35,0,.6-.09,.75-.26,.15-.17,.24-.4,.27-.67,.03-.27,.05-.7,.05-1.28v-4.13c0-.51,.02-.9,.07-1.18l-1.29,.05v-.74h.56c.46,0,.79-.04,1-.12s.4-.2,.58-.37h.53c.05,.47,.08,1.07,.09,1.8,.3-.5,.74-.94,1.3-1.32s1.15-.58,1.75-.58c.36,0,.66,.1,.91,.29s.36,.48,.36,.85c0,.19-.08,.39-.23,.58s-.37,.29-.64,.29-.48-.1-.65-.3c-.17-.2-.23-.44-.2-.72-.46-.01-.92,.16-1.39,.53-.46,.36-.86,.85-1.19,1.45l.02,4.46c0,.54-.03,.96-.07,1.23l1.14-.05v.74h-3.72v-.54Z"/><path class="cls-1" d="M657.79,164.38c-.25-.19-.38-.46-.38-.82,0-.23,.08-.43,.23-.61,.15-.18,.35-.26,.59-.26s.42,.08,.54,.25c.11,.17,.17,.34,.17,.53,0,.11,0,.19-.02,.25,.04,.02,.1,.04,.2,.04,.16,0,.32-.06,.48-.18s.31-.3,.44-.53c.28-.46,.7-1.49,1.27-3.1l-2.83-6.06c-.51-1.09-.83-1.92-.96-2.5l-.87,.04v-.74h3.75v.54h-.07c-.57,.04-.85,.28-.85,.72,0,.3,.14,.77,.44,1.42l2.12,4.55c.36-1.03,.88-2.54,1.56-4.55,.41-1.2,.71-1.87,.89-2.01l-1.25,.07v-.74h2.85v.54c-.41,.16-.73,.41-.95,.75-.22,.34-.47,.88-.74,1.6l-2.27,6.33c-.44,1.22-.8,2.14-1.08,2.77-.28,.62-.61,1.11-.96,1.46-.36,.35-.8,.53-1.32,.53-.4,0-.73-.1-.98-.29Z"/></g><path class="cls-1" d="M278.52,0c-3.06,0-6.25,2.61-6.25,6.38V147.5c-.05,5.67,1.88,11.2,5,15.86h0s.02,.03,.02,.03c1.77,2.65,3.93,5.03,6.33,6.98l1.18,.89,1.25,.72c3.83,2.58,9.19,4.12,13.42,4.12s6.26-3.58,6.26-6.36v-.81c-.66-1.61-1.31-3.22-1.95-4.83,0,.02,0,.05,.01,.08-.01-.05-.03-.1-.04-.15-8.92-22.37-16.12-45.2-15.77-69.95,.2-14.51,6.36-45.28-.02-56.03,7.44,12.54,2.8,41.73,3.3,56.05,.52,15.11,2.99,30.11,6.72,44.68-2.18-13.49-2.83-27.75,1.84-35.16-4.8,9.3-1.79,29.95,1.18,45.98,1.46,4.84,3.04,9.62,4.73,14.34V26.48C305.72,11.78,291.38,0,278.52,0Z"/></svg>