<svg width="616" height="193" viewBox="0 0 616 193" fill="none" xmlns="http://www.w3.org/2000/svg">
<g clip-path="url(#clip0_145_2)">
<path d="M490.23 0H594.23C608.46 0 615.69 8.84 615.69 21.47V97.47C615.69 114.64 608.14 124.29 592.3 124.29H488.92C469.34 123.23 465.53 107.51 465.53 97.47V24.65C465.53 8.21667 473.763 0 490.23 0ZM494.52 22.53V100.7H586.75V22.53H494.52Z" fill="url(#paint0_linear_145_2)"/>
<path d="M370.33 124.57H388.22L339.85 0.04L321.93 0L370.33 124.57Z" fill="url(#paint1_linear_145_2)"/>
<path d="M385.29 86.53L403.21 86.59L369.59 0.04L351.67 0L385.29 86.53Z" fill="url(#paint2_linear_145_2)"/>
<path d="M400.35 48.33L418.27 48.4L399.55 0.04L381.63 0L400.35 48.33Z" fill="url(#paint3_linear_145_2)"/>
<path d="M415.34 10.62L433.26 10.68L428.78 0.04L410.87 0L415.34 10.62Z" fill="url(#paint4_linear_145_2)"/>
<path d="M21.31 181V166.41H21.12L14.12 178.12H12.55L5.55 166.41H5.34V181H0V155.89H5.26L13.48 169.64H13.55L21.73 155.89H26.84V181H21.31Z" fill="#010101"/>
<path d="M47.7299 155.13C55.7299 155.13 62.0499 161.07 62.0499 168.37C62.0499 175.67 55.6799 181.73 47.7299 181.73C39.7799 181.73 33.5699 175.82 33.5699 168.37C33.5699 160.92 39.7899 155.13 47.7299 155.13ZM47.7299 177.01C48.8597 177.006 49.9776 176.779 51.0196 176.343C52.0616 175.906 53.0072 175.268 53.8023 174.466C54.5975 173.663 55.2265 172.712 55.6533 171.666C56.0802 170.62 56.2965 169.5 56.2899 168.37C56.2873 167.25 56.0636 166.142 55.6315 165.109C55.1994 164.076 54.5675 163.139 53.7721 162.351C52.9767 161.563 52.0335 160.94 50.9966 160.518C49.9597 160.095 48.8495 159.882 47.7299 159.89C46.6205 159.891 45.5222 160.112 44.4984 160.54C43.4746 160.967 42.5456 161.593 41.7648 162.381C40.984 163.17 40.3669 164.105 39.949 165.132C39.5311 166.16 39.3207 167.26 39.3299 168.37C39.3128 169.489 39.5166 170.6 39.9298 171.64C40.3431 172.679 40.9575 173.627 41.7379 174.429C42.5183 175.231 43.4494 175.871 44.4776 176.312C45.5059 176.753 46.6111 176.987 47.7299 177V177.01Z" fill="#010101"/>
<path d="M92.78 155.89L81.15 181H76.39L64.75 155.89H71L78.8 174.09H79L86.79 155.89H92.78Z" fill="#010101"/>
<path d="M112.79 170.25H103.54V176.25H119.81V181H98.05V155.89H118.93V160.65H103.54V165.53H112.79V170.25Z" fill="#010101"/>
<path d="M135.92 181V155.89H150.92C154.03 155.89 156.25 156.89 157.64 158.31C158.633 159.312 159.196 160.66 159.21 162.07C159.184 163.11 158.878 164.124 158.324 165.004C157.769 165.884 156.987 166.598 156.06 167.07C157.391 167.464 158.555 168.288 159.367 169.413C160.18 170.539 160.596 171.903 160.55 173.29C160.552 174.3 160.344 175.299 159.942 176.224C159.539 177.15 158.95 177.983 158.21 178.67C156.68 180.13 154.79 180.93 151.38 180.93L135.92 181ZM141.44 160.5V166H150.27C150.707 166.037 151.148 165.984 151.564 165.845C151.98 165.706 152.363 165.483 152.69 165.19C153.227 164.663 153.533 163.943 153.54 163.19C153.539 162.854 153.47 162.521 153.338 162.212C153.206 161.903 153.012 161.623 152.77 161.39C152.441 161.074 152.047 160.834 151.615 160.687C151.183 160.54 150.724 160.49 150.27 160.54L141.44 160.5ZM141.44 170.14V176.47H151.2C152.215 176.507 153.204 176.148 153.96 175.47C154.517 174.876 154.832 174.095 154.84 173.28C154.826 172.49 154.511 171.736 153.96 171.17C153.599 170.811 153.167 170.53 152.692 170.346C152.217 170.162 151.709 170.078 151.2 170.1L141.44 170.14Z" fill="#010101"/>
<path d="M182.57 170.25H173.32V176.25H189.6V181H167.83V155.89H188.72V160.65H173.32V165.53H182.57V170.25Z" fill="#010101"/>
<path d="M193.14 155.89H216.79V160.65H207.73V181H202.24V160.65H193.14V155.89Z" fill="#010101"/>
<path d="M219.76 155.89H243.41V160.65H234.35V181H228.86V160.65H219.76V155.89Z" fill="#010101"/>
<path d="M264.07 170.25H254.82V176.25H271.09V181H249.33V155.89H270.21V160.65H254.82V165.53H264.07V170.25Z" fill="#010101"/>
<path d="M277.59 181V155.89H291.49C295.06 155.89 297.4 156.89 299.02 158.62C300.35 160.016 301.092 161.872 301.09 163.8C301.09 167.03 299.09 169.52 296.02 170.86L301.9 181H295.6L290.53 171.79H283.08V181H277.59ZM283.08 160.58V167.14H292.08C292.528 167.16 292.975 167.09 293.395 166.934C293.815 166.778 294.199 166.538 294.525 166.23C294.851 165.922 295.111 165.552 295.29 165.142C295.47 164.731 295.565 164.288 295.57 163.84C295.574 163.435 295.499 163.033 295.348 162.658C295.197 162.282 294.973 161.939 294.69 161.65C294.299 161.263 293.828 160.966 293.309 160.781C292.791 160.596 292.238 160.527 291.69 160.58H283.08Z" fill="#010101"/>
<path d="M318.27 146.22H323.1V192.75H318.27V146.22Z" fill="#4B4B4B"/>
<path d="M347.45 155.89V176.24H362.19V181H342V155.89H347.45Z" fill="#010101"/>
<path d="M367.85 181V155.89H373.34V181H367.85Z" fill="#010101"/>
<path d="M406.63 155.89L395 181H390.24L378.6 155.89H384.82L392.61 174.09H392.84L400.64 155.89H406.63Z" fill="#010101"/>
<path d="M426.64 170.25H417.39V176.25H433.66V181H411.9V155.89H432.78V160.65H417.39V165.53H426.64V170.25Z" fill="#010101"/>
<path d="M449.76 181V155.89H464.76C467.87 155.89 470.1 156.89 471.48 158.31C472.479 159.308 473.046 160.658 473.06 162.07C473.034 163.11 472.728 164.124 472.174 165.004C471.619 165.884 470.837 166.598 469.91 167.07C471.241 167.464 472.405 168.288 473.217 169.413C474.03 170.539 474.446 171.903 474.4 173.29C474.399 174.299 474.191 175.298 473.788 176.223C473.386 177.148 472.798 177.981 472.06 178.67C470.52 180.13 468.64 180.93 465.22 180.93L449.76 181ZM455.29 160.5V166H464.12C464.557 166.037 464.997 165.984 465.413 165.844C465.829 165.705 466.213 165.482 466.54 165.19C466.805 164.928 467.015 164.617 467.159 164.274C467.303 163.931 467.378 163.562 467.38 163.19C467.381 162.854 467.314 162.522 467.183 162.213C467.053 161.904 466.861 161.624 466.62 161.39C466.291 161.074 465.897 160.834 465.465 160.687C465.033 160.54 464.574 160.49 464.12 160.54L455.29 160.5ZM455.29 170.14V176.47H465C466.017 176.501 467.007 176.144 467.77 175.47C468.323 174.874 468.637 174.094 468.65 173.28C468.632 172.491 468.318 171.738 467.77 171.17C467.407 170.811 466.973 170.53 466.497 170.346C466.02 170.162 465.511 170.078 465 170.1L455.29 170.14Z" fill="#010101"/>
<path d="M496.42 170.25H487.17V176.25H503.45V181H481.68V155.89H502.56V160.65H487.17V165.53H496.42V170.25Z" fill="#010101"/>
<path d="M507 155.89H530.65V160.65H521.59V181H516.1V160.65H507V155.89Z" fill="#010101"/>
<path d="M533.6 155.89H557.25V160.65H548.19V181H542.7V160.65H533.6V155.89Z" fill="#010101"/>
<path d="M577.92 170.25H568.67V176.25H584.94V181H563.18V155.89H584.06V160.65H568.67V165.53H577.92V170.25Z" fill="#010101"/>
<path d="M591.44 181V155.89H605.34C608.91 155.89 611.25 156.89 612.86 158.62C614.197 160.013 614.942 161.87 614.94 163.8C614.94 167.03 612.94 169.52 609.87 170.86L615.74 180.96H609.45L604.38 171.75H596.93V181H591.44ZM596.93 160.58V167.14H605.93C606.378 167.16 606.826 167.09 607.246 166.934C607.667 166.778 608.052 166.539 608.378 166.231C608.705 165.923 608.966 165.553 609.147 165.142C609.327 164.732 609.424 164.289 609.43 163.84C609.434 163.435 609.359 163.033 609.208 162.658C609.057 162.282 608.833 161.939 608.55 161.65C608.159 161.263 607.687 160.967 607.169 160.782C606.65 160.597 606.098 160.528 605.55 160.58H596.93Z" fill="#010101"/>
<path d="M289.66 21.43V0H191.55H164.36V21.43V48.92V70.28V100.77V124.08H191.55H289.66V100.77H191.55V70.28H248.97V48.92H191.55V21.43H289.66Z" fill="url(#paint5_linear_145_2)"/>
<path d="M89.35 71.52V70.52H112.66C129.4 70.52 131.92 61.52 131.92 48.52V18.56C131.86 5.32 127.14 0 110.63 0H0V124.39H28.75V21.29H89.35C97.5 21.29 103.17 21.29 103.17 29.39V41.08C103.17 48.08 97.5 49.18 89.35 49.18H54.15L54.24 70.47C79 93.78 98 117.32 106.63 124.5H140.4V123.5C111.32 97.84 95.53 76.73 89.35 71.52Z" fill="url(#paint6_linear_145_2)"/>
</g>
<defs>
<linearGradient id="paint0_linear_145_2" x1="617.64" y1="17.67" x2="464.98" y2="105.8" gradientUnits="userSpaceOnUse">
<stop offset="0.01" stop-color="#D9D9D9"/>
<stop offset="0.57" stop-color="#838383"/>
<stop offset="1" stop-color="#4B4B4B"/>
</linearGradient>
<linearGradient id="paint1_linear_145_2" x1="321.93" y1="62.28" x2="388.22" y2="62.28" gradientUnits="userSpaceOnUse">
<stop offset="0.01" stop-color="#D9D9D9"/>
<stop offset="0.67" stop-color="#838383"/>
<stop offset="1" stop-color="#4B4B4B"/>
</linearGradient>
<linearGradient id="paint2_linear_145_2" x1="351.67" y1="43.3" x2="403.21" y2="43.3" gradientUnits="userSpaceOnUse">
<stop stop-color="#D9D9D9"/>
<stop offset="0.67" stop-color="#838383"/>
<stop offset="1" stop-color="#4B4B4B"/>
</linearGradient>
<linearGradient id="paint3_linear_145_2" x1="381.63" y1="24.2" x2="418.27" y2="24.2" gradientUnits="userSpaceOnUse">
<stop offset="0.01" stop-color="#D9D9D9"/>
<stop offset="0.57" stop-color="#838383"/>
<stop offset="1" stop-color="#4B4B4B"/>
</linearGradient>
<linearGradient id="paint4_linear_145_2" x1="410.87" y1="5.34" x2="433.26" y2="5.34" gradientUnits="userSpaceOnUse">
<stop offset="0.01" stop-color="#D9D9D9"/>
<stop offset="0.67" stop-color="#838383"/>
<stop offset="1" stop-color="#4B4B4B"/>
</linearGradient>
<linearGradient id="paint5_linear_145_2" x1="164.36" y1="62.04" x2="289.66" y2="62.04" gradientUnits="userSpaceOnUse">
<stop offset="0.01" stop-color="#D1D1D1"/>
<stop offset="0.677083" stop-color="#838383"/>
<stop offset="1" stop-color="#4A4A4A"/>
</linearGradient>
<linearGradient id="paint6_linear_145_2" x1="0" y1="62.25" x2="140.4" y2="62.25" gradientUnits="userSpaceOnUse">
<stop offset="0.01" stop-color="#D1D1D1"/>
<stop offset="0.666667" stop-color="#838383"/>
<stop offset="1" stop-color="#4A4A4A"/>
</linearGradient>
<clipPath id="clip0_145_2">
<rect width="615.74" height="192.75" fill="white"/>
</clipPath>
</defs>
</svg>
