<svg width="121" height="121" viewBox="0 0 121 121" fill="none" xmlns="http://www.w3.org/2000/svg">
<g clip-path="url(#clip0_138_111)">
<path d="M49.44 56.1499C48.75 56.1499 48.26 56.4599 47.99 57.0799C47.71 57.6999 47.58 58.6999 47.58 60.0599C47.58 62.8099 48.3 64.1899 49.75 64.1899C50.85 64.1899 51.4 62.8999 51.4 60.3099C51.4 58.9399 51.22 57.9099 50.85 57.2099C50.48 56.5099 50.01 56.1599 49.44 56.1599V56.1499Z" fill="#787878"/>
<path d="M47.33 75.1398C47.96 75.7698 48.82 76.0898 49.9 76.0898C50.98 76.0898 51.87 75.7898 52.45 75.1998C53.03 74.6098 53.32 73.8398 53.32 72.9098C53.32 71.9798 53.03 71.2498 52.45 70.8598C51.87 70.4698 51.08 70.2798 50.08 70.2798C49.45 70.2798 48.54 70.3598 47.36 70.5198C46.71 71.0498 46.38 71.7698 46.38 72.6898C46.38 73.6898 46.7 74.4998 47.33 75.1398Z" fill="#787878"/>
<path d="M63.6 60.8098C62.86 61.3198 62.34 61.9198 62.03 62.6098C61.72 63.2998 61.57 64.0898 61.57 64.9698C61.57 66.2098 61.92 67.2398 62.63 68.0498C63.34 68.8698 64.28 69.2698 65.47 69.2698C66.14 69.2698 66.79 69.1298 67.43 68.8398C68.07 68.5498 68.6 68.1398 69.01 67.5898C68.16 66.5098 67.21 65.3398 66.14 64.0498C65.08 62.7698 64.23 61.6898 63.59 60.7998L63.6 60.8098Z" fill="#787878"/>
<path d="M18.55 49.4602H18.4C17.95 49.4602 17.57 49.5902 17.25 49.8402C16.93 50.1002 16.78 50.4302 16.78 50.8302H16.75V68.3502H16.78C16.78 68.7602 16.94 69.0902 17.25 69.3402C17.57 69.6002 17.95 69.7202 18.4 69.7202H18.61C20.18 69.7202 21.41 68.9002 22.31 67.2602C23.21 65.6202 23.66 63.2002 23.66 60.0002C23.66 52.9702 21.96 49.4502 18.55 49.4502V49.4602Z" fill="#787878"/>
<path d="M35.63 56.3398C34.77 56.3398 34.12 56.8998 33.67 58.0098C33.22 59.1198 33 60.7898 33 63.0098C33 65.3498 33.26 67.1198 33.78 68.2998C34.3 69.4798 35.07 70.0698 36.09 70.0698C36.89 70.0698 37.49 69.5098 37.91 68.3998C38.33 67.2898 38.54 65.6298 38.54 63.4298C38.54 58.6998 37.57 56.3398 35.63 56.3398Z" fill="#787878"/>
<path d="M65.31 58.8098C66.25 58.2798 66.92 57.7098 67.33 57.0898C67.74 56.4698 67.95 55.7598 67.95 54.9398C67.95 54.0098 67.75 53.2998 67.34 52.7998C66.93 52.2998 66.35 52.0498 65.59 52.0498C65.16 52.0498 64.81 52.1398 64.53 52.3098C64.25 52.4798 64.01 52.6998 63.81 52.9698C63.63 53.2298 63.5 53.4998 63.41 53.7898C63.33 54.0798 63.29 54.3398 63.29 54.5698C63.29 55.1998 63.45 55.8398 63.78 56.4798C64.11 57.1198 64.62 57.8998 65.31 58.8098Z" fill="#787878"/>
<path d="M102.79 55.9302C102.01 55.9302 101.18 56.4702 100.32 57.5402C99.46 58.6102 98.73 60.0102 98.16 61.7202C97.58 63.4402 97.3 65.1902 97.3 66.9802C97.3 68.0902 97.45 68.9302 97.75 69.5002C98.05 70.0702 98.44 70.3502 98.94 70.3502C99.68 70.3502 100.46 69.8602 101.27 68.8702C102.08 67.8802 102.77 66.5402 103.32 64.8602C103.88 63.1702 104.17 61.3402 104.22 59.3602C104.24 58.1502 104.12 57.2802 103.85 56.7502C103.58 56.2202 103.23 55.9502 102.8 55.9302H102.79Z" fill="#787878"/>
<path d="M60.22 0C26.96 0 0 26.96 0 60.22C0 93.48 26.96 120.44 60.22 120.44C93.48 120.44 120.44 93.48 120.44 60.22C120.44 26.96 93.48 0 60.22 0ZM26.76 65.62C25.98 67.4 24.86 68.78 23.41 69.76C21.96 70.74 20.27 71.23 18.33 71.23C17.76 71.23 17.27 71.22 16.86 71.2L15.61 71.17L10.99 71.23C10.89 71.23 10.82 71.2 10.78 71.13C10.74 71.07 10.72 70.93 10.72 70.71V70.55C10.72 70.34 10.75 70.19 10.81 70.12C10.87 70.05 10.96 70 11.09 69.98C11.62 69.87 12.04 69.68 12.36 69.39C12.68 69.1 12.83 68.76 12.83 68.35V50.83C12.83 50.43 12.67 50.08 12.36 49.79C12.04 49.5 11.62 49.31 11.09 49.2C10.97 49.18 10.88 49.13 10.81 49.06C10.75 48.99 10.72 48.84 10.72 48.63V48.47C10.72 48.26 10.74 48.12 10.78 48.05C10.82 47.99 10.89 47.95 10.99 47.95C11.72 47.95 12.38 47.96 12.95 47.98L16.01 48.04L16.9 48.01C17.47 47.97 17.95 47.95 18.34 47.95C20.4 47.95 22.15 48.46 23.58 49.47C25.02 50.48 26.1 51.86 26.84 53.59C27.57 55.33 27.94 57.27 27.94 59.43C27.94 61.77 27.55 63.84 26.76 65.62ZM41.61 67.36C41.07 68.59 40.3 69.55 39.32 70.22C38.33 70.89 37.17 71.23 35.85 71.23C34.53 71.23 33.33 70.9 32.32 70.25C31.31 69.6 30.53 68.67 29.98 67.47C29.43 66.27 29.15 64.87 29.15 63.28C29.15 61.69 29.43 60.22 29.98 59C30.53 57.78 31.3 56.83 32.3 56.17C33.3 55.51 34.47 55.18 35.82 55.18C37.17 55.18 38.31 55.51 39.31 56.16C40.31 56.81 41.08 57.73 41.62 58.93C42.16 60.12 42.43 61.5 42.43 63.07C42.43 64.64 42.16 66.13 41.62 67.37L41.61 67.36ZM56.5 56.76C56.5 57 56.46 57.18 56.38 57.28C56.3 57.38 56.14 57.43 55.89 57.43L54.15 57.4C54.82 58.2 55.16 59.13 55.16 60.21C55.16 61.82 54.67 63.08 53.69 63.99C52.71 64.9 51.34 65.35 49.56 65.35H49.44C48.44 65.35 47.71 65.47 47.25 65.7C46.79 65.93 46.56 66.22 46.56 66.54C46.56 66.72 46.65 66.85 46.82 66.92C46.99 66.99 47.25 67.03 47.6 67.03C47.99 67.03 48.43 67 48.92 66.94C50.08 66.88 50.73 66.85 50.88 66.85C52.41 66.85 53.65 67.21 54.6 67.92C55.55 68.63 56.02 69.98 56.02 71.96C56.02 73 55.7 73.96 55.06 74.83C54.42 75.71 53.53 76.41 52.4 76.92C51.27 77.44 49.99 77.7 48.56 77.7C47.28 77.7 46.21 77.52 45.35 77.15C44.49 76.78 43.86 76.31 43.45 75.73C43.04 75.15 42.84 74.52 42.84 73.85C42.84 73.18 43.04 72.59 43.44 72.03C43.84 71.47 44.53 70.88 45.5 70.27C45.17 69.96 44.85 69.53 44.52 68.95L43.76 67.73C43.6 67.44 43.52 67.18 43.52 66.93C43.52 66.5 43.76 66.1 44.25 65.74C44.41 65.6 44.93 65.31 45.81 64.88L46.39 64.6C45.59 64.19 44.97 63.61 44.52 62.86C44.07 62.11 43.85 61.24 43.85 60.26C43.85 58.59 44.35 57.29 45.36 56.36C46.37 55.43 47.77 54.97 49.56 54.97C50.15 54.97 50.88 55.11 51.73 55.4C51.83 55.42 52.06 55.48 52.42 55.58C52.78 55.68 53.12 55.73 53.44 55.73L54.6 55.7C54.89 55.68 55.27 55.67 55.76 55.67C56.05 55.67 56.24 55.71 56.34 55.79C56.44 55.87 56.49 56.02 56.49 56.25V56.74L56.5 56.76ZM56.76 14.22C56.76 12.4 58.23 10.93 60.05 10.93C61.87 10.93 63.34 12.4 63.34 14.22C63.34 16.04 61.87 17.51 60.05 17.51C58.23 17.51 56.76 16.04 56.76 14.22ZM77.62 59.38C77.08 59.43 76.54 59.53 75.99 59.7C75.44 59.87 75.02 60.14 74.73 60.5C74.54 60.72 74.34 61.04 74.15 61.47C73.95 61.9 73.72 62.4 73.45 62.99C73.18 63.57 72.9 64.15 72.62 64.71C72.34 65.28 71.97 65.84 71.53 66.41C71.89 66.85 72.34 67.32 72.87 67.84C73.4 68.36 73.85 68.73 74.22 68.95C74.58 69.16 75.1 69.34 75.77 69.48C76.44 69.63 76.99 69.71 77.42 69.73V70.7H71.78L69.74 68.37C69.44 68.7 69.09 69.04 68.71 69.39C68.32 69.74 67.91 70.04 67.49 70.3C67.02 70.57 66.54 70.79 66.06 70.94C65.58 71.1 65.02 71.17 64.37 71.17C63.72 71.17 63.02 71.07 62.36 70.88C61.69 70.68 61.09 70.37 60.54 69.94C60.01 69.52 59.58 68.98 59.25 68.33C58.92 67.67 58.76 66.89 58.76 65.98C58.76 64.85 59.06 63.83 59.66 62.91C60.26 61.99 61.37 61.02 63 59.99C62.26 59.01 61.69 58.17 61.28 57.46C60.87 56.75 60.66 55.95 60.66 55.07C60.66 54.44 60.79 53.86 61.04 53.34C61.29 52.82 61.64 52.36 62.1 51.97C62.52 51.61 63.03 51.34 63.63 51.14C64.23 50.94 64.84 50.84 65.46 50.84C66.19 50.84 66.83 50.96 67.38 51.19C67.93 51.42 68.38 51.73 68.73 52.1C69.05 52.45 69.29 52.85 69.46 53.3C69.63 53.76 69.71 54.21 69.71 54.67C69.71 55.76 69.37 56.71 68.69 57.49C68.01 58.28 67.08 58.99 65.89 59.62C66.75 60.78 67.58 61.83 68.4 62.79C69.22 63.74 70.01 64.68 70.76 65.6C71.37 64.62 71.84 63.71 72.18 62.84C72.52 61.98 72.68 61.22 72.68 60.56C72.68 60.27 72.47 60.04 72.04 59.87C71.62 59.7 71.03 59.54 70.28 59.38V58.41H77.6V59.38H77.62ZM94.05 54.14C94.11 52.29 93.91 50.95 93.45 50.14C92.99 49.33 92.27 48.92 91.3 48.92C89.9 48.92 88.57 49.71 87.32 51.28C86.06 52.85 85.05 54.81 84.29 57.13C83.53 59.46 83.15 61.65 83.15 63.71C83.15 65.77 83.48 67.24 84.14 68.13C84.8 69.02 85.75 69.46 86.98 69.46C87.84 69.46 88.68 69.25 89.5 68.83C90.31 68.41 91.15 67.78 92.02 66.93C92.12 66.83 92.24 66.78 92.36 66.78C92.48 66.78 92.59 66.82 92.67 66.9L92.73 66.96C92.79 67.02 92.82 67.08 92.82 67.15C92.82 67.25 92.74 67.41 92.57 67.61C90.53 70.02 88.23 71.22 85.65 71.22C83.88 71.22 82.49 70.64 81.48 69.49C80.47 68.34 79.97 66.6 79.97 64.27C79.97 61.72 80.46 59.18 81.44 56.66C82.42 54.14 83.81 52.06 85.61 50.42C87.41 48.78 89.46 47.97 91.77 47.97C92.61 47.97 93.46 48.08 94.32 48.31C95.17 48.54 95.8 48.8 96.19 49.11C96.33 49.23 96.41 49.39 96.41 49.57C96.41 49.69 96.38 49.84 96.32 50L95.08 54.08C95.06 54.18 95 54.27 94.91 54.34C94.82 54.41 94.72 54.45 94.62 54.45H94.4C94.17 54.45 94.06 54.35 94.06 54.14H94.05ZM103.1 69.35C101.82 70.6 100.35 71.22 98.68 71.22C97.42 71.22 96.4 70.78 95.62 69.89C94.84 69.01 94.45 67.78 94.45 66.22C94.45 64.78 94.8 63.18 95.5 61.42C96.2 59.66 97.2 58.16 98.51 56.93C99.82 55.69 101.34 55.08 103.06 55.08C104.25 55.08 105.22 55.52 105.95 56.39C106.68 57.27 107.05 58.47 107.05 60.02C107.05 61.46 106.71 63.07 106.03 64.84C105.35 66.61 104.37 68.12 103.1 69.36V69.35ZM108.06 71.21C107.34 71.21 106.75 70.63 106.75 69.9C106.75 69.17 107.33 68.59 108.06 68.59C108.79 68.59 109.37 69.17 109.37 69.9C109.37 70.63 108.79 71.21 108.06 71.21Z" fill="#787878"/>
</g>
<defs>
<clipPath id="clip0_138_111">
<rect width="120.44" height="120.44" fill="white"/>
</clipPath>
</defs>
</svg>
