<svg xmlns="http://www.w3.org/2000/svg" xmlns:xlink="http://www.w3.org/1999/xlink" viewBox="0 0 615.74 192.75"><defs><style>.cls-1{fill:url(#linear-gradient);}.cls-2{fill:url(#linear-gradient-2);}.cls-3{fill:url(#linear-gradient-3);}.cls-4{fill:url(#linear-gradient-4);}.cls-5{fill:url(#linear-gradient-5);}.cls-6{fill:#010101;}.cls-7{fill:#db2427;}.cls-8{fill:url(#linear-gradient-6);}.cls-9{fill:url(#linear-gradient-7);}</style><linearGradient id="linear-gradient" x1="617.64" y1="17.67" x2="464.98" y2="105.8" gradientUnits="userSpaceOnUse"><stop offset="0.01" stop-color="#d42429"/><stop offset="0.16" stop-color="#d02429"/><stop offset="0.31" stop-color="#c62327"/><stop offset="0.44" stop-color="#b32125"/><stop offset="0.57" stop-color="#9a1e22"/><stop offset="0.67" stop-color="#941c21"/><stop offset="0.81" stop-color="#84161d"/><stop offset="0.96" stop-color="#6a0c16"/><stop offset="1" stop-color="#610914"/></linearGradient><linearGradient id="linear-gradient-2" x1="321.93" y1="62.28" x2="388.22" y2="62.28" xlink:href="#linear-gradient"/><linearGradient id="linear-gradient-3" x1="351.67" y1="43.3" x2="403.21" y2="43.3" xlink:href="#linear-gradient"/><linearGradient id="linear-gradient-4" x1="381.63" y1="24.2" x2="418.27" y2="24.2" xlink:href="#linear-gradient"/><linearGradient id="linear-gradient-5" x1="410.87" y1="5.34" x2="433.26" y2="5.34" xlink:href="#linear-gradient"/><linearGradient id="linear-gradient-6" x1="164.36" y1="62.04" x2="289.66" y2="62.04" xlink:href="#linear-gradient"/><linearGradient id="linear-gradient-7" x1="0" y1="62.25" x2="140.4" y2="62.25" xlink:href="#linear-gradient"/></defs><g id="Layer_2" data-name="Layer 2"><g id="Layer_1-2" data-name="Layer 1"><path class="cls-1" d="M490.23,0h104c14.23,0,21.46,8.84,21.46,21.47v76c0,17.17-7.55,26.82-23.39,26.82H488.92c-19.58-1.06-23.39-16.78-23.39-26.82V24.65Q465.53,0,490.23,0Zm4.29,22.53V100.7h92.23V22.53Z"/><polygon class="cls-2" points="370.33 124.57 388.22 124.57 339.85 0.04 321.93 0 370.33 124.57"/><polygon class="cls-3" points="385.29 86.53 403.21 86.59 369.59 0.04 351.67 0 385.29 86.53"/><polygon class="cls-4" points="400.35 48.33 418.27 48.4 399.55 0.04 381.63 0 400.35 48.33"/><polygon class="cls-5" points="415.34 10.62 433.26 10.68 428.78 0.04 410.87 0 415.34 10.62"/><path class="cls-6" d="M21.31,181V166.41h-.19l-7,11.71H12.55l-7-11.71H5.34V181H0V155.89H5.26l8.22,13.75h.07l8.18-13.75h5.11V181Z"/><path class="cls-6" d="M47.73,155.13c8,0,14.32,5.94,14.32,13.24s-6.37,13.36-14.32,13.36-14.16-5.91-14.16-13.36S39.79,155.13,47.73,155.13Zm0,21.88a8.59,8.59,0,0,0,8.56-8.64,8.5,8.5,0,0,0-8.56-8.48,8.41,8.41,0,0,0-8.4,8.48A8.5,8.5,0,0,0,47.73,177Z"/><path class="cls-6" d="M92.78,155.89,81.15,181H76.39L64.75,155.89H71l7.8,18.2H79l7.79-18.2Z"/><path class="cls-6" d="M112.79,170.25h-9.25v6h16.27V181H98.05V155.89h20.88v4.76H103.54v4.88h9.25Z"/><path class="cls-6" d="M135.92,181V155.89h15c3.11,0,5.33,1,6.72,2.42a5.42,5.42,0,0,1,1.57,3.76,5.77,5.77,0,0,1-3.15,5,6.27,6.27,0,0,1,4.49,6.22,7.33,7.33,0,0,1-2.34,5.38c-1.53,1.46-3.42,2.26-6.83,2.26Zm5.52-20.5V166h8.83a3.22,3.22,0,0,0,2.42-.81,2.84,2.84,0,0,0,.85-2,2.51,2.51,0,0,0-.77-1.8,3.11,3.11,0,0,0-2.5-.85Zm0,9.64v6.33h9.76a3.92,3.92,0,0,0,2.76-1,3.25,3.25,0,0,0,.88-2.19,3.1,3.1,0,0,0-.88-2.11,3.69,3.69,0,0,0-2.76-1.07Z"/><path class="cls-6" d="M182.57,170.25h-9.25v6H189.6V181H167.83V155.89h20.89v4.76h-15.4v4.88h9.25Z"/><path class="cls-6" d="M193.14,155.89h23.65v4.76h-9.06V181h-5.49V160.65h-9.1Z"/><path class="cls-6" d="M219.76,155.89h23.65v4.76h-9.06V181h-5.49V160.65h-9.1Z"/><path class="cls-6" d="M264.07,170.25h-9.25v6h16.27V181H249.33V155.89h20.88v4.76H254.82v4.88h9.25Z"/><path class="cls-6" d="M277.59,181V155.89h13.9c3.57,0,5.91,1,7.53,2.73a7.5,7.5,0,0,1,2.07,5.18c0,3.23-2,5.72-5.07,7.06L301.9,181h-6.3l-5.07-9.21h-7.45V181Zm5.49-20.42v6.56h9a3.34,3.34,0,0,0,3.49-3.3,3.08,3.08,0,0,0-.88-2.19,3.75,3.75,0,0,0-3-1.07Z"/><path class="cls-7" d="M318.27,146.22h4.83v46.53h-4.83Z"/><path class="cls-6" d="M347.45,155.89v20.35h14.74V181H342V155.89Z"/><path class="cls-6" d="M367.85,181V155.89h5.49V181Z"/><path class="cls-6" d="M406.63,155.89,395,181h-4.76L378.6,155.89h6.22l7.79,18.2h.23l7.8-18.2Z"/><path class="cls-6" d="M426.64,170.25h-9.25v6h16.27V181H411.9V155.89h20.88v4.76H417.39v4.88h9.25Z"/><path class="cls-6" d="M449.76,181V155.89h15c3.11,0,5.34,1,6.72,2.42a5.39,5.39,0,0,1,1.58,3.76,5.77,5.77,0,0,1-3.15,5,6.27,6.27,0,0,1,4.49,6.22,7.37,7.37,0,0,1-2.34,5.38c-1.54,1.46-3.42,2.26-6.84,2.26Zm5.53-20.5V166h8.83a3.23,3.23,0,0,0,2.42-.81,2.83,2.83,0,0,0,.84-2,2.5,2.5,0,0,0-.76-1.8,3.11,3.11,0,0,0-2.5-.85Zm0,9.64v6.33H465a4,4,0,0,0,2.77-1,3.3,3.3,0,0,0,.88-2.19,3.14,3.14,0,0,0-.88-2.11A3.71,3.71,0,0,0,465,170.1Z"/><path class="cls-6" d="M496.42,170.25h-9.25v6h16.28V181H481.68V155.89h20.88v4.76H487.17v4.88h9.25Z"/><path class="cls-6" d="M507,155.89h23.65v4.76h-9.06V181h-5.49V160.65H507Z"/><path class="cls-6" d="M533.6,155.89h23.65v4.76h-9.06V181H542.7V160.65h-9.1Z"/><path class="cls-6" d="M577.92,170.25h-9.25v6h16.27V181H563.18V155.89h20.88v4.76H568.67v4.88h9.25Z"/><path class="cls-6" d="M591.44,181V155.89h13.9c3.57,0,5.91,1,7.52,2.73a7.47,7.47,0,0,1,2.08,5.18c0,3.23-2,5.72-5.07,7.06l5.87,10.1h-6.29l-5.07-9.21h-7.45V181Zm5.49-20.42v6.56h9a3.35,3.35,0,0,0,3.5-3.3,3.08,3.08,0,0,0-.88-2.19,3.76,3.76,0,0,0-3-1.07Z"/><polygon class="cls-8" points="289.66 21.43 289.66 0 191.55 0 164.36 0 164.36 21.43 164.36 48.92 164.36 70.28 164.36 100.77 164.36 124.08 191.55 124.08 289.66 124.08 289.66 100.77 191.55 100.77 191.55 70.28 248.97 70.28 248.97 48.92 191.55 48.92 191.55 21.43 289.66 21.43"/><path class="cls-9" d="M89.35,71.52v-1h23.31c16.74,0,19.26-9,19.26-22V18.56C131.86,5.32,127.14,0,110.63,0H0V124.39H28.75V21.29h60.6c8.15,0,13.82,0,13.82,8.1V41.08c0,7-5.67,8.1-13.82,8.1H54.15l.09,21.29C79,93.78,98,117.32,106.63,124.5H140.4v-1C111.32,97.84,95.53,76.73,89.35,71.52Z"/></g></g></svg>